<svg width="24" height="24" viewBox="0 0 24 24" fill="none" xmlns="http://www.w3.org/2000/svg">
<g clip-path="url(#clip0_1_113707)">
<path d="M2 6.22501V19.225" stroke="#5B5C60" stroke-linecap="round" stroke-linejoin="round"/>
<path d="M22 6.22501V19.225" stroke="#5B5C60" stroke-linecap="round" stroke-linejoin="round"/>
<path d="M5.5 16.225H12V23.225H5.5C5.36739 23.225 5.24021 23.1723 5.14645 23.0786C5.05268 22.9848 5 22.8576 5 22.725V16.725C5 16.5924 5.05268 16.4652 5.14645 16.3715C5.24021 16.2777 5.36739 16.225 5.5 16.225V16.225Z" stroke="#5B5C60" stroke-linecap="round" stroke-linejoin="round"/>
<path d="M12 16.225H18.5C18.6326 16.225 18.7598 16.2777 18.8536 16.3715C18.9473 16.4652 19 16.5924 19 16.725V22.725C19 22.8576 18.9473 22.9848 18.8536 23.0786C18.7598 23.1723 18.6326 23.225 18.5 23.225H12V16.225Z" stroke="#5B5C60" stroke-linecap="round" stroke-linejoin="round"/>
<path d="M8.5 9.22501H14.5C14.6326 9.22501 14.7598 9.27768 14.8536 9.37145C14.9473 9.46522 15 9.5924 15 9.72501V16.225H8V9.72501C8 9.5924 8.05268 9.46522 8.14645 9.37145C8.24021 9.27768 8.36739 9.22501 8.5 9.22501V9.22501Z" stroke="#5B5C60" stroke-linecap="round" stroke-linejoin="round"/>
<path d="M10 9.22501H13V11.725C13 11.8576 12.9473 11.9848 12.8536 12.0786C12.7598 12.1723 12.6326 12.225 12.5 12.225H10.5C10.3674 12.225 10.2402 12.1723 10.1464 12.0786C10.0527 11.9848 10 11.8576 10 11.725V9.22501Z" stroke="#5B5C60" stroke-linecap="round" stroke-linejoin="round"/>
<path d="M7 16.225H10V18.725C10 18.8576 9.94732 18.9848 9.85355 19.0786C9.75979 19.1723 9.63261 19.225 9.5 19.225H7.5C7.36739 19.225 7.24021 19.1723 7.14645 19.0786C7.05268 18.9848 7 18.8576 7 18.725V16.225Z" stroke="#5B5C60" stroke-linecap="round" stroke-linejoin="round"/>
<path d="M14 16.225H17V18.725C17 18.8576 16.9473 18.9848 16.8536 19.0786C16.7598 19.1723 16.6326 19.225 16.5 19.225H14.5C14.3674 19.225 14.2402 19.1723 14.1464 19.0786C14.0527 18.9848 14 18.8576 14 18.725V16.225Z" stroke="#5B5C60" stroke-linecap="round" stroke-linejoin="round"/>
<path d="M22.5 6.225C22.6326 6.225 22.7598 6.17232 22.8535 6.07856C22.9473 5.98479 23 5.85761 23 5.725V4.586C23.0001 4.48094 22.9672 4.3785 22.9058 4.29323C22.8444 4.20796 22.7577 4.1442 22.658 4.111L12.3 0.822003C12.1029 0.759324 11.8911 0.759324 11.694 0.822003L1.35399 4.117C1.25076 4.14852 1.16049 4.21259 1.09669 4.29965C1.03288 4.3867 0.99896 4.49207 0.999992 4.6V5.725C0.999992 5.85761 1.05267 5.98479 1.14644 6.07856C1.24021 6.17232 1.36738 6.225 1.49999 6.225H22.5Z" stroke="#5B5C60" stroke-linecap="round" stroke-linejoin="round"/>
</g>
<defs>
<clipPath id="clip0_1_113707">
<rect width="24" height="24" fill="white"/>
</clipPath>
</defs>
</svg>
