<svg width="24" height="24" viewBox="0 0 24 24" fill="none" xmlns="http://www.w3.org/2000/svg">
<g clip-path="url(#clip0_1_114044)">
<path d="M0.5 23H22.5" stroke="#5B5C60" stroke-linecap="round" stroke-linejoin="round"/>
<path d="M19.5 23V17H12.5V23" stroke="#5B5C60" stroke-linecap="round" stroke-linejoin="round"/>
<path d="M8.5 16.5L15.375 11C15.5524 10.858 15.7728 10.7806 16 10.7806C16.2272 10.7806 16.4476 10.858 16.625 11L23.5 16.5" stroke="#5B5C60" stroke-linecap="round" stroke-linejoin="round"/>
<path d="M12.5 17L19.5 23" stroke="#5B5C60" stroke-linecap="round" stroke-linejoin="round"/>
<path d="M19.5 17L12.5 23" stroke="#5B5C60" stroke-linecap="round" stroke-linejoin="round"/>
<path d="M21.5 14.9V23" stroke="#5B5C60" stroke-linecap="round" stroke-linejoin="round"/>
<path d="M10.5 14.9V23" stroke="#5B5C60" stroke-linecap="round" stroke-linejoin="round"/>
<path d="M0.52301 6H11.477" stroke="#5B5C60" stroke-linecap="round" stroke-linejoin="round"/>
<path d="M0.5 10H11.5" stroke="#5B5C60" stroke-linecap="round" stroke-linejoin="round"/>
<path d="M11.5 11.5V6.5C11.5 5.04131 10.9205 3.64236 9.88909 2.61091C8.85764 1.57946 7.45869 1 6 1C4.54131 1 3.14236 1.57946 2.11091 2.61091C1.07946 3.64236 0.5 5.04131 0.5 6.5V23" stroke="#5B5C60" stroke-linecap="round" stroke-linejoin="round"/>
</g>
<defs>
<clipPath id="clip0_1_114044">
<rect width="24" height="24" fill="white"/>
</clipPath>
</defs>
</svg>
