<svg width="24" height="24" viewBox="0 0 24 24" fill="none" xmlns="http://www.w3.org/2000/svg">
<path d="M8 19.645V22.445C8.00003 22.5794 7.96262 22.7111 7.89196 22.8254C7.82131 22.9397 7.72021 23.032 7.6 23.092C7.25843 23.2627 6.88183 23.3515 6.5 23.3515C6.11817 23.3515 5.74157 23.2627 5.4 23.092C5.27979 23.032 5.17869 22.9397 5.10804 22.8254C5.03738 22.7111 4.99997 22.5794 5 22.445V19.645" stroke="#5B5C60" stroke-linecap="round" stroke-linejoin="round"/>
<path d="M19 19.645V22.445C19 22.5794 18.9626 22.7111 18.892 22.8254C18.8213 22.9397 18.7202 23.032 18.6 23.092C18.2584 23.2627 17.8818 23.3515 17.5 23.3515C17.1182 23.3515 16.7416 23.2627 16.4 23.092C16.2798 23.032 16.1787 22.9397 16.108 22.8254C16.0374 22.7111 16 22.5794 16 22.445V19.645" stroke="#5B5C60" stroke-linecap="round" stroke-linejoin="round"/>
<path d="M8 19.645H16V21.645H8V19.645Z" stroke="#5B5C60" stroke-linecap="round" stroke-linejoin="round"/>
<path d="M18 17.645H12V12.645H17.5C17.6326 12.645 17.7598 12.6977 17.8536 12.7915C17.9473 12.8852 18 13.0124 18 13.145V17.645Z" stroke="#5B5C60" stroke-linecap="round" stroke-linejoin="round"/>
<path d="M6 2.64502H18" stroke="#5B5C60" stroke-linecap="round" stroke-linejoin="round"/>
<path d="M6 4.64502H18" stroke="#5B5C60" stroke-linecap="round" stroke-linejoin="round"/>
<path d="M4 17.645V1.64502C4 1.3798 4.10536 1.12545 4.29289 0.937913C4.48043 0.750376 4.73478 0.64502 5 0.64502H19C19.2652 0.64502 19.5196 0.750376 19.7071 0.937913C19.8946 1.12545 20 1.3798 20 1.64502V17.645" stroke="#5B5C60" stroke-linecap="round" stroke-linejoin="round"/>
<path d="M15 12.645V14.645" stroke="#5B5C60" stroke-linecap="round" stroke-linejoin="round"/>
<path d="M12 17.645H6V13.145C6 13.0124 6.05268 12.8852 6.14645 12.7915C6.24021 12.6977 6.36739 12.645 6.5 12.645H12V17.645Z" stroke="#5B5C60" stroke-linecap="round" stroke-linejoin="round"/>
<path d="M9 12.645V14.645" stroke="#5B5C60" stroke-linecap="round" stroke-linejoin="round"/>
<path d="M15 12.645H9V9.14502C9 9.01241 9.05268 8.88523 9.14645 8.79147C9.24021 8.6977 9.36739 8.64502 9.5 8.64502H14.5C14.6326 8.64502 14.7598 8.6977 14.8536 8.79147C14.9473 8.88523 15 9.01241 15 9.14502V12.645Z" stroke="#5B5C60" stroke-linecap="round" stroke-linejoin="round"/>
<path d="M12 8.64502V10.645" stroke="#5B5C60" stroke-linecap="round" stroke-linejoin="round"/>
<path d="M20.776 19.092C20.693 19.2581 20.5654 19.3978 20.4075 19.4955C20.2496 19.5931 20.0677 19.6449 19.882 19.645H4.118C3.93234 19.6449 3.75037 19.5931 3.59248 19.4955C3.43458 19.3978 3.307 19.2581 3.224 19.092L2.862 18.369C2.82381 18.2928 2.80574 18.2081 2.80951 18.1229C2.81329 18.0377 2.83878 17.9549 2.88358 17.8823C2.92837 17.8098 2.99097 17.7499 3.06543 17.7084C3.13989 17.6668 3.22374 17.645 3.309 17.645H20.691C20.7763 17.645 20.8601 17.6668 20.9346 17.7084C21.009 17.7499 21.0716 17.8098 21.1164 17.8823C21.1612 17.9549 21.1867 18.0377 21.1905 18.1229C21.1943 18.2081 21.1762 18.2928 21.138 18.369L20.776 19.092Z" stroke="#5B5C60" stroke-linecap="round" stroke-linejoin="round"/>
</svg>
