<svg width="25" height="19" viewBox="0 0 25 19" fill="none" xmlns="http://www.w3.org/2000/svg">
<path d="M24 7.3514L12.992 1.1294C12.8419 1.04458 12.6724 1 12.5 1C12.3276 1 12.1581 1.04458 12.008 1.1294L1 7.3514" stroke="#5B5C60" stroke-linecap="round" stroke-linejoin="round"/>
<path d="M4 5.65137V16.8514C4 17.1166 4.10536 17.3709 4.29289 17.5585C4.48043 17.746 4.73478 17.8514 5 17.8514H9.5C9.63261 17.8514 9.75979 17.7987 9.85355 17.7049C9.94732 17.6112 10 17.484 10 17.3514V12.3514C10 12.2188 10.0527 12.0916 10.1464 11.9978C10.2402 11.904 10.3674 11.8514 10.5 11.8514H14.5C14.6326 11.8514 14.7598 11.904 14.8536 11.9978C14.9473 12.0916 15 12.2188 15 12.3514V17.3514C15 17.484 15.0527 17.6112 15.1464 17.7049C15.2402 17.7987 15.3674 17.8514 15.5 17.8514H20C20.2652 17.8514 20.5196 17.746 20.7071 17.5585C20.8946 17.3709 21 17.1166 21 16.8514V5.65137" stroke="#5B5C60" stroke-linecap="round" stroke-linejoin="round"/>
</svg>
