<svg width="24" height="25" viewBox="0 0 24 25" fill="none" xmlns="http://www.w3.org/2000/svg">
<g clip-path="url(#clip0_1_113770)">
<path d="M8.25 10.5945C8.24896 9.88692 8.44803 9.19347 8.82422 8.59418C9.20041 7.9949 9.73839 7.5142 10.3761 7.20757C11.0138 6.90095 11.7252 6.78089 12.4282 6.86126C13.1312 6.94163 13.7971 7.21915 14.3491 7.66179C14.9012 8.10443 15.3168 8.69414 15.548 9.36288C15.7792 10.0316 15.8167 10.7521 15.6559 11.4412C15.4952 12.1303 15.1429 12.7599 14.6397 13.2573C14.1365 13.7547 13.5029 14.0997 12.812 14.2525C12.5854 14.2972 12.381 14.4185 12.2331 14.596C12.0853 14.7735 12.003 14.9965 12 15.2275V16.3405" stroke="#5B5C60" stroke-linecap="round" stroke-linejoin="round"/>
<path d="M12 18.8445C12.0494 18.8445 12.0978 18.8592 12.1389 18.8867C12.18 18.9141 12.212 18.9532 12.231 18.9989C12.2499 19.0446 12.2548 19.0948 12.2452 19.1433C12.2356 19.1918 12.2117 19.2364 12.1768 19.2713C12.1418 19.3063 12.0973 19.3301 12.0488 19.3397C12.0003 19.3494 11.95 19.3444 11.9043 19.3255C11.8586 19.3066 11.8196 19.2745 11.7921 19.2334C11.7647 19.1923 11.75 19.144 11.75 19.0945C11.75 19.0282 11.7763 18.9647 11.8232 18.9178C11.8701 18.8709 11.9337 18.8445 12 18.8445Z" stroke="#5B5C60" stroke-linecap="round" stroke-linejoin="round"/>
<path d="M12 24.3535C18.3513 24.3535 23.5 19.2048 23.5 12.8535C23.5 6.50224 18.3513 1.35352 12 1.35352C5.64873 1.35352 0.5 6.50224 0.5 12.8535C0.5 19.2048 5.64873 24.3535 12 24.3535Z" stroke="#5B5C60" stroke-linecap="round" stroke-linejoin="round"/>
</g>
<defs>
<clipPath id="clip0_1_113770">
<rect width="24" height="24" fill="white" transform="translate(0 0.852539)"/>
</clipPath>
</defs>
</svg>
