<svg width="25" height="25" viewBox="0 0 25 25" fill="none" xmlns="http://www.w3.org/2000/svg">
<path d="M3.56001 23.5605C3.2763 23.829 2.89905 23.9762 2.50849 23.9709C2.11792 23.9655 1.74484 23.808 1.46858 23.5319C1.19232 23.2558 1.03467 22.8828 1.02914 22.4922C1.02362 22.1016 1.17066 21.7243 1.43901 21.4405L8.01001 14.8675L10.131 16.9895L3.56001 23.5605Z" stroke="#5B5C60" stroke-linecap="round" stroke-linejoin="round"/>
<path d="M6.95099 13.8065L11.191 18.0495" stroke="#5B5C60" stroke-linecap="round" stroke-linejoin="round"/>
<path d="M20.41 4.6015L9.07199 15.9285" stroke="#5B5C60" stroke-linecap="round" stroke-linejoin="round"/>
<path d="M22.285 4.85947C22.1992 4.97437 22.0897 5.06946 21.9639 5.1383C21.8381 5.20714 21.6989 5.24812 21.5559 5.25846C21.4129 5.2688 21.2693 5.24826 21.1349 5.19822C21.0005 5.14819 20.8784 5.06983 20.777 4.96847L19.965 4.15747C19.8613 4.0541 19.7816 3.92923 19.7315 3.79167C19.6814 3.65412 19.6621 3.50724 19.675 3.3614C19.6878 3.21557 19.7326 3.07435 19.806 2.9477C19.8795 2.82106 19.9798 2.71208 20.1 2.62847L22.316 1.08947C22.4123 1.02253 22.529 0.991559 22.6458 1.00198C22.7626 1.0124 22.8721 1.06354 22.955 1.14647L23.855 2.04647C23.94 2.13179 23.9914 2.24492 23.9996 2.36507C24.0079 2.48522 23.9725 2.60432 23.9 2.70047L22.285 4.85947Z" stroke="#5B5C60" stroke-linecap="round" stroke-linejoin="round"/>
<path d="M12.086 10.0865L8.646 6.64649C8.92107 6.03724 9.03907 5.36878 8.98922 4.70218C8.93937 4.03558 8.72325 3.3921 8.36062 2.83054C7.99799 2.26899 7.50041 1.80727 6.91334 1.48758C6.32628 1.16789 5.66846 1.00043 5 1.00049C4.72385 1.00038 4.44842 1.02853 4.178 1.08449C4.08979 1.10296 4.00821 1.14493 3.9419 1.20596C3.87558 1.26699 3.827 1.34481 3.80128 1.43119C3.77556 1.51757 3.77367 1.60929 3.7958 1.69665C3.81793 1.78401 3.86326 1.86377 3.927 1.92749L5.354 3.35449C5.44747 3.44819 5.49997 3.57514 5.5 3.70749V5.00049C5.5 5.1331 5.44732 5.26027 5.35355 5.35404C5.25979 5.44781 5.13261 5.50049 5 5.50049H3.707C3.57465 5.50046 3.44771 5.44796 3.354 5.35449L1.927 3.92749C1.86328 3.86375 1.78353 3.81842 1.69616 3.79629C1.6088 3.77416 1.51708 3.77605 1.4307 3.80177C1.34432 3.82749 1.26651 3.87607 1.20548 3.94239C1.14445 4.0087 1.10247 4.09028 1.084 4.17849C1.02804 4.44891 0.999896 4.72434 1 5.00049C0.99994 5.66895 1.16741 6.32677 1.4871 6.91383C1.80679 7.50089 2.2685 7.99848 2.83006 8.36111C3.39161 8.72374 4.03509 8.93986 4.70169 8.98971C5.36829 9.03956 6.03676 8.92156 6.646 8.64649L10.086 12.0865" stroke="#5B5C60" stroke-linecap="round" stroke-linejoin="round"/>
<path d="M14.914 12.9145L18.354 16.3545C18.9632 16.0794 19.6317 15.9614 20.2983 16.0113C20.9649 16.0611 21.6084 16.2772 22.1699 16.6399C22.7315 17.0025 23.1932 17.5001 23.5129 18.0871C23.8326 18.6742 24.0001 19.332 24 20.0005C24.0001 20.2766 23.972 20.5521 23.916 20.8225C23.8975 20.9107 23.8556 20.9923 23.7945 21.0586C23.7335 21.1249 23.6557 21.1735 23.5693 21.1992C23.4829 21.2249 23.3912 21.2268 23.3038 21.2047C23.2165 21.1826 23.1367 21.1372 23.073 21.0735L21.646 19.6465C21.5523 19.553 21.4254 19.5005 21.293 19.5005H20C19.8674 19.5005 19.7402 19.5532 19.6464 19.6469C19.5527 19.7407 19.5 19.8679 19.5 20.0005V21.2935C19.5 21.4258 19.5525 21.5528 19.646 21.6465L21.073 23.0735C21.1367 23.1372 21.1821 23.217 21.2042 23.3043C21.2263 23.3917 21.2244 23.4834 21.1987 23.5698C21.173 23.6562 21.1244 23.734 21.0581 23.795C20.9918 23.856 20.9102 23.898 20.822 23.9165C20.5516 23.9724 20.2761 24.0006 20 24.0005C19.3315 24.0006 18.6737 23.8331 18.0867 23.5134C17.4996 23.1937 17.002 22.732 16.6394 22.1704C16.2767 21.6089 16.0606 20.9654 16.0108 20.2988C15.9609 19.6322 16.0789 18.9637 16.354 18.3545L12.914 14.9145" stroke="#5B5C60" stroke-linecap="round" stroke-linejoin="round"/>
</svg>
