<svg width="24" height="24" viewBox="0 0 24 24" fill="none" xmlns="http://www.w3.org/2000/svg">
<path d="M14.921 10.1801C14.8345 10.1152 14.7292 10.0801 14.621 10.0801H9.39C9.28182 10.0801 9.17655 10.1152 9.09 10.1801C6.923 11.8341 4.5 15.0361 4.5 17.5771C4.5 21.1681 6.5 23.0771 12 23.0771C17.5 23.0771 19.5 21.1681 19.5 17.5771C19.5 15.0361 17.087 11.8341 14.921 10.1801V10.1801Z" stroke="#5B5C60" stroke-linecap="round" stroke-linejoin="round"/>
<path d="M8.50403 8.07703H15.504" stroke="#5B5C60" stroke-linecap="round" stroke-linejoin="round"/>
<path d="M15.739 2.37403C15.7893 2.28264 15.8099 2.17779 15.7977 2.07417C15.7854 1.97054 15.7411 1.87333 15.6709 1.79615C15.6007 1.71898 15.508 1.66571 15.406 1.64381C15.304 1.62191 15.1977 1.63248 15.102 1.67403L13.002 2.57403L12.467 1.23403C12.43 1.14108 12.3659 1.06138 12.2831 1.00523C12.2003 0.949083 12.1025 0.919067 12.0025 0.919067C11.9024 0.919067 11.8047 0.949083 11.7219 1.00523C11.6391 1.06138 11.575 1.14108 11.538 1.23403L11 2.57703L8.89998 1.67703C8.80426 1.63548 8.69795 1.62491 8.59593 1.64681C8.49391 1.66871 8.40129 1.72198 8.33106 1.79915C8.26084 1.87633 8.21651 1.97354 8.2043 2.07717C8.19209 2.18079 8.21261 2.28564 8.26298 2.37703C8.8481 3.38831 9.2582 4.49115 9.47598 5.63903C9.49117 5.76062 9.55048 5.8724 9.64265 5.95314C9.73483 6.03389 9.85344 6.07797 9.97598 6.07703H14.041C14.1635 6.07797 14.2821 6.03389 14.3743 5.95314C14.4665 5.8724 14.5258 5.76062 14.541 5.63903C14.7528 4.49079 15.1579 3.3868 15.739 2.37403V2.37403Z" stroke="#5B5C60" stroke-linecap="round" stroke-linejoin="round"/>
<path d="M12.504 13.577V12.577" stroke="#5B5C60" stroke-linecap="round" stroke-linejoin="round"/>
<path d="M14 13.577H11.971C11.6588 13.576 11.356 13.684 11.1148 13.8824C10.8737 14.0807 10.7094 14.357 10.6501 14.6636C10.5909 14.9701 10.6404 15.2877 10.7903 15.5617C10.9401 15.8356 11.1809 16.0486 11.471 16.164L13.534 16.99C13.8231 17.1063 14.0626 17.3196 14.2116 17.5932C14.3606 17.8668 14.4098 18.1838 14.3507 18.4897C14.2916 18.7956 14.1278 19.0714 13.8876 19.2698C13.6474 19.4682 13.3456 19.5768 13.034 19.577H11" stroke="#5B5C60" stroke-linecap="round" stroke-linejoin="round"/>
<path d="M12.504 20.577V19.577" stroke="#5B5C60" stroke-linecap="round" stroke-linejoin="round"/>
</svg>
