<svg width="24" height="24" viewBox="0 0 24 24" fill="none" xmlns="http://www.w3.org/2000/svg">
<g clip-path="url(#clip0_1_114061)">
<path d="M20.5 17.5V11C20.4981 9.26662 19.9663 7.57527 18.9759 6.15272C17.9856 4.73016 16.5839 3.64438 14.959 3.04097C14.8446 2.33816 14.4839 1.69897 13.9414 1.23769C13.3989 0.776415 12.7101 0.523132 11.998 0.523132C11.2859 0.523132 10.5971 0.776415 10.0546 1.23769C9.51215 1.69897 9.15144 2.33816 9.037 3.04097C7.41225 3.64418 6.01093 4.73003 5.02118 6.15272C4.03142 7.57542 3.50061 9.26686 3.5 11V17.5C3.5 18.2956 3.18393 19.0587 2.62132 19.6213C2.05871 20.1839 1.29565 20.5 0.5 20.5H23.5C22.7044 20.5 21.9413 20.1839 21.3787 19.6213C20.8161 19.0587 20.5 18.2956 20.5 17.5Z" stroke="#5B5C60" stroke-linecap="round" stroke-linejoin="round"/>
<path d="M15 20.5C15 21.2956 14.6839 22.0587 14.1213 22.6213C13.5587 23.1839 12.7956 23.5 12 23.5C11.2044 23.5 10.4413 23.1839 9.87868 22.6213C9.31607 22.0587 9 21.2956 9 20.5" stroke="#5B5C60" stroke-linecap="round" stroke-linejoin="round"/>
</g>
<defs>
<clipPath id="clip0_1_114061">
<rect width="24" height="24" fill="white"/>
</clipPath>
</defs>
</svg>
