<svg width="24" height="24" viewBox="0 0 24 24" fill="none" xmlns="http://www.w3.org/2000/svg">
<path d="M7.04025 8.71999H17.1203" stroke="#5B5C60" stroke-linecap="round" stroke-linejoin="round"/>
<path d="M7.04025 12.92H17.1203" stroke="#5B5C60" stroke-linecap="round" stroke-linejoin="round"/>
<path d="M7.04025 17.12H17.1203" stroke="#5B5C60" stroke-linecap="round" stroke-linejoin="round"/>
<path d="M7.04 1.99998H20.48C20.9256 1.99998 21.3529 2.17698 21.6679 2.49204C21.983 2.80711 22.16 3.23442 22.16 3.67998V21.32C22.16 21.7655 21.983 22.1929 21.6679 22.5079C21.3529 22.823 20.9256 23 20.48 23H3.68C3.23444 23 2.80712 22.823 2.49206 22.5079C2.177 22.1929 2 21.7655 2 21.32V3.67998C2 3.23442 2.177 2.80711 2.49206 2.49204C2.80712 2.17698 3.23444 1.99998 3.68 1.99998H7.88" stroke="#5B5C60" stroke-linecap="round" stroke-linejoin="round"/>
</svg>
