<svg width="24" height="24" viewBox="0 0 24 24" fill="none" xmlns="http://www.w3.org/2000/svg">
<path d="M9 2.5H5C4.44772 2.5 4 2.94772 4 3.5V20.5C4 21.0523 4.44772 21.5 5 21.5H9C9.55228 21.5 10 21.0523 10 20.5V3.5C10 2.94772 9.55228 2.5 9 2.5Z" stroke="#5B5C60" stroke-linecap="round" stroke-linejoin="round"/>
<path d="M19 2.5H15C14.4477 2.5 14 2.94772 14 3.5V20.5C14 21.0523 14.4477 21.5 15 21.5H19C19.5523 21.5 20 21.0523 20 20.5V3.5C20 2.94772 19.5523 2.5 19 2.5Z" stroke="#5B5C60" stroke-linecap="round" stroke-linejoin="round"/>
</svg>
