<svg width="24" height="24" viewBox="0 0 24 24" fill="none" xmlns="http://www.w3.org/2000/svg">
<path d="M12 0.573987C14.1642 0.570809 16.2844 1.18481 18.112 2.34399C22.862 5.35499 23.212 11.574 19.427 16.121C17.2672 18.7149 14.8899 21.1196 12.321 23.309C12.231 23.3843 12.1174 23.4256 12 23.4256C11.8826 23.4256 11.769 23.3843 11.679 23.309C9.11013 21.1192 6.73284 18.7141 4.57299 16.12C0.788985 11.574 1.13799 5.35499 5.88799 2.34399C7.71557 1.18481 9.83579 0.570809 12 0.573987V0.573987Z" stroke="#5B5C60" stroke-linecap="round" stroke-linejoin="round"/>
<path d="M17.065 7.4C17.1167 7.35496 17.1587 7.29975 17.1882 7.23781C17.2177 7.17586 17.2341 7.10851 17.2364 7.03994C17.2388 6.97137 17.227 6.90305 17.2018 6.83924C17.1766 6.77542 17.1385 6.71748 17.09 6.669L15.739 5.314C15.6684 5.24345 15.5782 5.19565 15.4802 5.17676C15.3822 5.15787 15.2808 5.16875 15.189 5.208L12 6.575L8.81098 5.208C8.7192 5.16875 8.61777 5.15787 8.51975 5.17676C8.42173 5.19565 8.3316 5.24345 8.26098 5.314L6.90998 6.665C6.86143 6.71348 6.82337 6.77143 6.79818 6.83524C6.77298 6.89905 6.76119 6.96737 6.76354 7.03594C6.76588 7.10451 6.78231 7.17186 6.81181 7.23381C6.8413 7.29575 6.88323 7.35096 6.93498 7.396C7.25877 7.66125 7.52152 7.99322 7.70531 8.36926C7.88911 8.74531 7.98962 9.15658 7.99998 9.575C7.99998 11.225 6.99998 11.975 6.99998 13.075C6.99998 14.175 10.35 16.575 12 16.575C13.65 16.575 17 14.175 17 13.075C17 11.975 16 11.225 16 9.575C16.0109 9.15726 16.1117 8.74677 16.2955 8.37145C16.4793 7.99614 16.7417 7.66481 17.065 7.4Z" stroke="#5B5C60" stroke-linecap="round" stroke-linejoin="round"/>
<path d="M8 9.57495H16" stroke="#5B5C60" stroke-linecap="round" stroke-linejoin="round"/>
<path d="M12 11.575V13.575" stroke="#5B5C60" stroke-linecap="round" stroke-linejoin="round"/>
</svg>
