<svg width="24" height="24" viewBox="0 0 24 24" fill="none" xmlns="http://www.w3.org/2000/svg">
<g clip-path="url(#clip0_1_113800)">
<path d="M14.5 10.392C14.7121 10.7311 15.0069 11.0107 15.3568 11.2046C15.7066 11.3984 16.1 11.5001 16.5 11.5001C16.9 11.5001 17.2934 11.3984 17.6432 11.2046C17.9931 11.0107 18.2879 10.7311 18.5 10.392" stroke="#5B5C60" stroke-linecap="round" stroke-linejoin="round"/>
<path d="M9.5 10.392C9.2879 10.7311 8.99307 11.0107 8.64322 11.2046C8.29336 11.3984 7.89996 11.5001 7.5 11.5001C7.10004 11.5001 6.70664 11.3984 6.35678 11.2046C6.00693 11.0107 5.7121 10.7311 5.5 10.392" stroke="#5B5C60" stroke-linecap="round" stroke-linejoin="round"/>
<path d="M12 15.5C11.6022 15.5 11.2206 15.658 10.9393 15.9393C10.658 16.2206 10.5 16.6022 10.5 17V18C10.5 18.3978 10.658 18.7794 10.9393 19.0607C11.2206 19.342 11.6022 19.5 12 19.5C12.3978 19.5 12.7794 19.342 13.0607 19.0607C13.342 18.7794 13.5 18.3978 13.5 18V17C13.5 16.6022 13.342 16.2206 13.0607 15.9393C12.7794 15.658 12.3978 15.5 12 15.5Z" stroke="#5B5C60" stroke-linecap="round" stroke-linejoin="round"/>
<path d="M13.5 4.5H15.5L13.5 6.5H15.5" stroke="#5B5C60" stroke-linecap="round" stroke-linejoin="round"/>
<path d="M17.5 2.5H19.5L17.5 4.5H19.5" stroke="#5B5C60" stroke-linecap="round" stroke-linejoin="round"/>
<path d="M21.5 0.5H23.5L21.5 2.5H23.5" stroke="#5B5C60" stroke-linecap="round" stroke-linejoin="round"/>
<path d="M15.5 1.04597C12.9566 0.234241 10.2099 0.333333 7.73152 1.32623C5.25318 2.31913 3.19783 4.14389 1.91839 6.48718C0.63894 8.83048 0.215224 11.5461 0.719992 14.1678C1.22476 16.7895 2.62652 19.1536 4.68458 20.8544C6.74264 22.5551 9.3286 23.4862 11.9984 23.4879C14.6683 23.4896 17.2554 22.5617 19.3156 20.8636C21.3758 19.1655 22.7806 16.8031 23.2887 14.1821C23.7968 11.5611 23.3765 8.84489 22.1 6.49997" stroke="#5B5C60" stroke-linecap="round" stroke-linejoin="round"/>
</g>
<defs>
<clipPath id="clip0_1_113800">
<rect width="24" height="24" fill="white"/>
</clipPath>
</defs>
</svg>
