<svg width="24" height="24" viewBox="0 0 24 24" fill="none" xmlns="http://www.w3.org/2000/svg">
<path d="M1.40155 3.7435C1.24542 3.46414 1.18274 3.14217 1.22265 2.82464C1.26257 2.50711 1.40299 2.21067 1.6234 1.97864C1.84381 1.74661 2.13265 1.59116 2.44772 1.535C2.76278 1.47884 3.08754 1.52492 3.37455 1.6665L22.3885 11.3255C22.5119 11.3882 22.6155 11.4839 22.6879 11.6019C22.7602 11.7199 22.7985 11.8556 22.7985 11.994C22.7985 12.1324 22.7602 12.2681 22.6879 12.3861C22.6155 12.5041 22.5119 12.5998 22.3885 12.6625L3.37455 22.3345C3.08754 22.4761 2.76278 22.5222 2.44772 22.466C2.13265 22.4098 1.84381 22.2544 1.6234 22.0224C1.40299 21.7903 1.26257 21.4939 1.22265 21.1764C1.18274 20.8588 1.24542 20.5369 1.40155 20.2575L6.45955 11.9935L1.40155 3.7435Z" stroke="#5B5C60" stroke-linecap="round" stroke-linejoin="round"/>
<path d="M22.7971 11.9941H6.45312" stroke="#5B5C60" stroke-linecap="round" stroke-linejoin="round"/>
</svg>
