<svg width="24" height="24" viewBox="0 0 24 24" fill="none" xmlns="http://www.w3.org/2000/svg">
<g clip-path="url(#clip0_1_113698)">
<path d="M1.00009 2.118C1.00018 1.94761 1.04381 1.78007 1.12684 1.63127C1.20986 1.48248 1.32953 1.35736 1.47449 1.26781C1.61944 1.17825 1.78488 1.12721 1.9551 1.11955C2.12532 1.11188 2.29467 1.14784 2.44709 1.224L22.2111 11.106C22.377 11.1891 22.5165 11.3168 22.6139 11.4747C22.7114 11.6326 22.763 11.8145 22.763 12C22.763 12.1855 22.7114 12.3674 22.6139 12.5253C22.5165 12.6832 22.377 12.8109 22.2111 12.894L2.44709 22.776C2.29467 22.8522 2.12532 22.8881 1.9551 22.8805C1.78488 22.8728 1.61944 22.8218 1.47449 22.7322C1.32953 22.6426 1.20986 22.5175 1.12684 22.3687C1.04381 22.2199 1.00018 22.0524 1.00009 21.882V2.118Z" stroke="#5B5C60" stroke-linecap="round" stroke-linejoin="round"/>
</g>
<defs>
<clipPath id="clip0_1_113698">
<rect width="24" height="24" fill="white"/>
</clipPath>
</defs>
</svg>
