<svg width="25" height="23" viewBox="0 0 25 23" fill="none" xmlns="http://www.w3.org/2000/svg">
<path d="M13 1H2C1.44772 1 1 1.44772 1 2V21C1 21.5523 1.44772 22 2 22H13C13.5523 22 14 21.5523 14 21V2C14 1.44772 13.5523 1 13 1Z" stroke="#5B5C60" stroke-linecap="round" stroke-linejoin="round"/>
<path d="M10.5 13H9.5C9.22386 13 9 13.2239 9 13.5V16.5C9 16.7761 9.22386 17 9.5 17H10.5C10.7761 17 11 16.7761 11 16.5V13.5C11 13.2239 10.7761 13 10.5 13Z" stroke="#5B5C60" stroke-linecap="round" stroke-linejoin="round"/>
<path d="M23 15.691C23 15.7838 22.9742 15.8747 22.9254 15.9537C22.8767 16.0326 22.8069 16.0964 22.724 16.138L21 17V14H22.5C22.6326 14 22.7598 14.0527 22.8536 14.1464C22.9473 14.2402 23 14.3674 23 14.5V15.691Z" stroke="#5B5C60" stroke-linecap="round" stroke-linejoin="round"/>
<path d="M21 14V12.5C21 11.673 24 9 24 9" stroke="#5B5C60" stroke-linecap="round" stroke-linejoin="round"/>
<path d="M21 17V20C21 20.5304 20.7893 21.0391 20.4142 21.4142C20.0391 21.7893 19.5304 22 19 22C18.4696 22 17.9609 21.7893 17.5858 21.4142C17.2107 21.0391 17 20.5304 17 20V6.5C17 6.10218 16.842 5.72064 16.5607 5.43934C16.2794 5.15804 15.8978 5 15.5 5H14" stroke="#5B5C60" stroke-linecap="round" stroke-linejoin="round"/>
<path d="M1 9H14" stroke="#5B5C60" stroke-linecap="round" stroke-linejoin="round"/>
<path d="M11.5 3H3.5C3.22386 3 3 3.22386 3 3.5V6.5C3 6.77614 3.22386 7 3.5 7H11.5C11.7761 7 12 6.77614 12 6.5V3.5C12 3.22386 11.7761 3 11.5 3Z" stroke="#5B5C60" stroke-linecap="round" stroke-linejoin="round"/>
<path d="M9 19H11" stroke="#5B5C60" stroke-linecap="round" stroke-linejoin="round"/>
</svg>
