<svg width="24" height="24" viewBox="0 0 24 24" fill="none" xmlns="http://www.w3.org/2000/svg">
<path d="M12 0.573987C14.1642 0.570809 16.2844 1.18481 18.112 2.34399C22.862 5.35499 23.212 11.574 19.427 16.121C17.2671 18.7151 14.8898 21.1202 12.321 23.31C12.231 23.3853 12.1174 23.4266 12 23.4266C11.8826 23.4266 11.769 23.3853 11.679 23.31C9.11007 21.1206 6.73277 18.7159 4.57299 16.122C0.788985 11.574 1.13799 5.35499 5.88799 2.34399C7.71557 1.18481 9.83579 0.570809 12 0.573987V0.573987Z" stroke="#5B5C60" stroke-linecap="round" stroke-linejoin="round"/>
<path d="M7 4.57501H17V6.57501H7V4.57501Z" stroke="#5B5C60" stroke-linecap="round" stroke-linejoin="round"/>
<path d="M17 12.575H7V11.575C7 11.3098 7.10536 11.0554 7.29289 10.8679C7.48043 10.6804 7.73478 10.575 8 10.575H16C16.2652 10.575 16.5196 10.6804 16.7071 10.8679C16.8946 11.0554 17 11.3098 17 11.575V12.575Z" stroke="#5B5C60" stroke-linecap="round" stroke-linejoin="round"/>
<path d="M8.5 10.575L8 6.57501" stroke="#5B5C60" stroke-linecap="round" stroke-linejoin="round"/>
<path d="M16 6.57501L15.5 10.575" stroke="#5B5C60" stroke-linecap="round" stroke-linejoin="round"/>
<path d="M7.75598 12.575C7.97038 13.1786 8.31079 13.7297 8.75459 14.1916C9.19839 14.6535 9.73542 15.0157 10.33 15.254L9.73898 16.906C9.71186 16.9815 9.70331 17.0625 9.71406 17.142C9.7248 17.2215 9.75453 17.2972 9.80071 17.3628C9.8469 17.4285 9.90821 17.482 9.97944 17.5189C10.0507 17.5558 10.1297 17.5751 10.21 17.575H13.79C13.8702 17.5751 13.9493 17.5558 14.0205 17.5189C14.0918 17.482 14.1531 17.4285 14.1992 17.3628C14.2454 17.2972 14.2752 17.2215 14.2859 17.142C14.2966 17.0625 14.2881 16.9815 14.261 16.906L13.67 15.254C14.2645 15.0157 14.8016 14.6535 15.2454 14.1916C15.6892 13.7297 16.0296 13.1786 16.244 12.575" stroke="#5B5C60" stroke-linecap="round" stroke-linejoin="round"/>
</svg>
