<?xml version="1.0" standalone="no"?>
<!DOCTYPE svg PUBLIC "-//W3C//DTD SVG 1.1//EN" "http://www.w3.org/Graphics/SVG/1.1/DTD/svg11.dtd" >
<svg xmlns="http://www.w3.org/2000/svg">
<metadata>Generated by IcoMoon</metadata>
<defs>
<font id="condominioapp" horiz-adv-x="1024">
<font-face units-per-em="1024" ascent="960" descent="-64" />
<missing-glyph horiz-adv-x="1024" />
<glyph unicode="&#x20;" horiz-adv-x="512" d="" />
<glyph unicode="&#xe900;" glyph-name="profile" d="M525.683 938.667c-156.041 0-283-126.961-283-283s126.96-283 283-283c156.037 0 283 126.96 283 283 0 156.039-126.963 283-283 283zM525.683 896c132.978 0 240.333-107.353 240.333-240.333 0-132.982-107.355-240.333-240.333-240.333-132.982 0-240.333 107.352-240.333 240.333s107.351 240.333 240.333 240.333zM530.183 294.667c-92.286 0-182.402-28.4-258-81.333-75.598-52.929-133.098-127.861-164.667-214.583-0.813-2.168-1.283-4.673-1.283-7.288 0-9.163 5.776-16.976 13.886-19.997l0.147-0.048c2.188-0.83 4.719-1.31 7.361-1.31 9.173 0 16.993 5.789 20.007 13.913l0.048 0.148c28.575 78.499 80.571 146.341 149 194.25 68.43 47.914 149.965 73.583 233.5 73.583s164.984-25.669 233.417-73.583c68.428-47.91 120.509-115.751 149.083-194.25 3.070-8.257 10.883-14.033 20.046-14.033 2.615 0 5.12 0.471 7.435 1.331l-0.148-0.048c8.257 3.070 14.033 10.883 14.033 20.046 0 2.615-0.471 5.12-1.331 7.435l0.048-0.148c-31.568 86.723-89.069 161.655-164.667 214.583-75.601 52.933-165.631 81.333-257.917 81.333z" />
<glyph unicode="&#xe901;" glyph-name="anomaly" d="M512 181.333c-7.383 0-14.609-2.226-20.75-6.333-6.117-4.1-10.931-9.868-13.75-16.667 0-0.013 0-0.028 0-0.043s0-0.030 0-0.045v0.002c-2.809-6.799-3.529-14.244-2.083-21.5 0-0.013 0-0.028 0-0.043s0-0.030 0-0.045v0.002c1.442-7.231 4.962-13.868 10.167-19.083 5.215-5.205 11.853-8.725 19.083-10.167 0.013 0 0.028 0 0.043 0s0.030 0 0.045 0h-0.002c7.256-1.445 14.701-0.726 21.5 2.083 0.013 0 0.028 0 0.043 0s0.030 0 0.045 0h-0.002c6.798 2.819 12.566 7.633 16.667 13.75 4.103 6.145 6.329 13.371 6.329 20.754 0 9.891-3.939 19.429-10.917 26.417-6.988 6.978-16.525 10.917-26.417 10.917zM513.083 149.25c1.027-0.205 1.932-0.766 2.667-1.5 0.733-0.735 1.295-1.64 1.5-2.667 0.209-1.044 0.060-2.129-0.333-3.084v-0.085c-0.405-0.973-1.038-1.747-1.917-2.333-0.885-0.589-1.95-0.914-3.001-0.914-1.401 0-2.769 0.604-3.75 1.583-0.979 0.98-1.583 2.349-1.583 3.75 0 1.051 0.324 2.116 0.916 3 0.587 0.879 1.36 1.513 2.333 1.917h0.085c0.954 0.393 2.040 0.541 3.084 0.333zM512 629.333c-11.782 0-21.333-9.551-21.333-21.333v0-320c0-11.782 9.551-21.333 21.333-21.333v0c11.782 0 21.333 9.551 21.333 21.333v0 320c0 11.782-9.551 21.333-21.333 21.333v0zM512 949.333c-18.39 0-36.392-5.194-52-14.917-15.606-9.722-28.226-23.576-36.333-40.083l-404.167-823.417c-6.463-13.15-9.485-27.7-8.75-42.333 0.734-14.609 5.275-28.831 13-41.25 7.75-12.438 18.521-22.726 31.333-29.833 12.815-7.109 27.179-10.845 41.833-10.833h830.167c14.655-0.011 29.019 3.727 41.833 10.833 12.809 7.107 23.582 17.393 31.333 29.833 7.726 12.421 12.265 26.645 13 41.25 0.737 14.638-2.29 29.187-8.75 42.333l-404.167 823.417c-8.107 16.508-20.727 30.361-36.333 40.083-15.608 9.723-33.61 14.917-52 14.917zM512 906.667c10.419 0 20.66-2.909 29.5-8.417 8.842-5.508 15.909-13.403 20.5-22.75l404.167-823.417c3.268-6.651 4.789-13.947 4.417-21.333-0.371-7.401-2.587-14.64-6.5-20.917-3.914-6.282-9.357-11.406-15.833-15-6.48-3.594-13.763-5.506-21.167-5.5h-830.167c-7.403-0.006-14.693 1.909-21.167 5.5-6.477 3.593-11.918 8.716-15.833 15-3.914 6.278-6.128 13.52-6.5 20.917-0.372 7.391 1.15 14.686 4.417 21.333l404.167 823.417c4.591 9.347 11.658 17.242 20.5 22.75 8.84 5.507 19.081 8.417 29.5 8.417z" />
<glyph unicode="&#xe902;" glyph-name="arrow-cube-down" d="M85.333-64c-35.285 0-64 28.715-64 64 0 5.658 2.248 11.085 6.248 15.087 4.001 3.998 9.427 6.246 15.085 6.246s11.084-2.249 15.085-6.246c4.001-4.002 6.249-9.429 6.249-15.087 0-11.776 9.557-21.333 21.333-21.333 5.658 0 11.084-2.249 15.085-6.246 4.001-4.002 6.249-9.429 6.249-15.087s-2.248-11.085-6.249-15.087c-4-3.998-9.427-6.246-15.085-6.246zM426.667-64c-5.658 0-11.084 2.249-15.085 6.246-4.001 4.002-6.249 9.429-6.249 15.087s2.248 11.085 6.249 15.087c4 3.998 9.427 6.246 15.085 6.246 11.776 0 21.333 9.557 21.333 21.333 0 5.658 2.249 11.085 6.246 15.087 4.002 3.998 9.429 6.246 15.087 6.246s11.085-2.249 15.087-6.246c3.998-4.002 6.246-9.429 6.246-15.087 0-35.285-28.715-64-64-64zM42.667 64c-5.658 0-11.084 2.249-15.085 6.246-4.001 4.002-6.248 9.429-6.248 15.087v42.667c0 5.658 2.248 11.085 6.248 15.087 4.001 3.998 9.427 6.246 15.085 6.246s11.084-2.249 15.085-6.246c4.001-4.002 6.249-9.429 6.249-15.087v-42.667c0-5.658-2.248-11.085-6.249-15.087-4-3.998-9.427-6.246-15.085-6.246zM170.667-64c-5.658 0-11.084 2.249-15.085 6.246-4.001 4.002-6.249 9.429-6.249 15.087s2.248 11.085 6.249 15.087c4 3.998 9.427 6.246 15.085 6.246h42.667c5.658 0 11.084-2.249 15.085-6.246 4.001-4.002 6.249-9.429 6.249-15.087s-2.248-11.085-6.249-15.087c-4-3.998-9.427-6.246-15.085-6.246h-42.667zM170.667 362.667c-5.658 0-11.084 2.249-15.085 6.246-4.001 4.002-6.249 9.429-6.249 15.087s2.248 11.085 6.249 15.087c4 3.998 9.427 6.246 15.085 6.246h42.667c5.658 0 11.084-2.249 15.085-6.246 4.001-4.002 6.249-9.429 6.249-15.087s-2.248-11.085-6.249-15.087c-4-3.998-9.427-6.246-15.085-6.246h-42.667zM298.667-64c-5.658 0-11.084 2.249-15.085 6.246-4.001 4.002-6.249 9.429-6.249 15.087s2.248 11.085 6.249 15.087c4 3.998 9.427 6.246 15.085 6.246h42.667c5.658 0 11.084-2.249 15.085-6.246 4.001-4.002 6.249-9.429 6.249-15.087s-2.248-11.085-6.249-15.087c-4-3.998-9.427-6.246-15.085-6.246h-42.667zM298.667 362.667c-5.658 0-11.084 2.249-15.085 6.246-4.001 4.002-6.249 9.429-6.249 15.087s2.248 11.085 6.249 15.087c4 3.998 9.427 6.246 15.085 6.246h42.667c5.658 0 11.084-2.249 15.085-6.246 4.001-4.002 6.249-9.429 6.249-15.087s-2.248-11.085-6.249-15.087c-4-3.998-9.427-6.246-15.085-6.246h-42.667zM469.333 320c-11.776 0-21.333 9.557-21.333 21.333s-9.557 21.333-21.333 21.333c-5.658 0-11.084 2.249-15.085 6.246-4.001 4.002-6.249 9.429-6.249 15.087s2.248 11.085 6.249 15.087c4 3.998 9.427 6.246 15.085 6.246 35.285 0 64-28.715 64-64 0-5.658-2.249-11.085-6.246-15.087-4.002-3.998-9.429-6.246-15.087-6.246zM469.333 192c-5.658 0-11.085 2.249-15.087 6.246-3.998 4.002-6.246 9.429-6.246 15.087v42.667c0 5.658 2.249 11.085 6.246 15.087 4.002 3.998 9.429 6.246 15.087 6.246s11.085-2.249 15.087-6.246c3.998-4.002 6.246-9.429 6.246-15.087v-42.667c0-5.658-2.249-11.085-6.246-15.087-4.002-3.998-9.429-6.246-15.087-6.246zM42.667 320c-5.658 0-11.084 2.249-15.085 6.246-4.001 4.002-6.248 9.429-6.248 15.087 0 35.285 28.715 64 64 64 5.658 0 11.084-2.249 15.085-6.246 4.001-4.002 6.249-9.429 6.249-15.087s-2.248-11.085-6.249-15.087c-4-3.998-9.427-6.246-15.085-6.246-11.776 0-21.333-9.557-21.333-21.333s-9.557-21.333-21.333-21.333zM42.667 192c-5.658 0-11.084 2.249-15.085 6.246-4.001 4.002-6.248 9.429-6.248 15.087v42.667c0 5.658 2.248 11.085 6.248 15.087 4.001 3.998 9.427 6.246 15.085 6.246s11.084-2.249 15.085-6.246c4.001-4.002 6.249-9.429 6.249-15.087v-42.667c0-5.658-2.248-11.085-6.249-15.087-4-3.998-9.427-6.246-15.085-6.246zM469.333 64c-5.658 0-11.085 2.249-15.087 6.246-3.998 4.002-6.246 9.429-6.246 15.087v42.667c0 5.658 2.249 11.085 6.246 15.087 4.002 3.998 9.429 6.246 15.087 6.246s11.085-2.249 15.087-6.246c3.998-4.002 6.246-9.429 6.246-15.087v-42.667c0-5.658-2.249-11.085-6.246-15.087-4.002-3.998-9.429-6.246-15.087-6.246zM85.333 490.667c-35.285 0-64 28.715-64 64v341.333c0 35.285 28.715 64 64 64h341.333c35.285 0 64-28.715 64-64v-341.333c0-35.285-28.715-64-64-64h-341.333zM85.333 917.333c-5.658 0-11.084-2.248-15.085-6.249s-6.249-9.427-6.249-15.085v-341.333c0-5.658 2.248-11.084 6.249-15.085s9.427-6.249 15.085-6.249h341.333c5.658 0 11.085 2.248 15.087 6.249 3.998 4 6.246 9.427 6.246 15.085v341.333c0 5.658-2.249 11.084-6.246 15.085-4.002 4.001-9.429 6.249-15.087 6.249h-341.333zM810.667 128.725c-2.803-0.004-5.572 0.563-8.149 1.664-2.615 1.054-4.983 2.637-6.955 4.651l-170.624 170.624c-1.984 1.984-3.558 4.339-4.629 6.929-1.075 2.594-1.626 5.372-1.626 8.175 0 2.807 0.55 5.585 1.626 8.175 1.071 2.59 2.645 4.945 4.629 6.929s4.339 3.558 6.929 4.629c2.594 1.075 5.372 1.626 8.175 1.626s5.581-0.55 8.175-1.626c2.59-1.071 4.945-2.645 6.929-4.629l134.229-134.229v609.024c0 5.652 2.244 11.073 6.242 15.070s9.417 6.242 15.070 6.242c5.653 0 11.072-2.245 15.070-6.242s6.242-9.417 6.242-15.070v-609.11l134.229 134.229c4.006 4.006 9.438 6.255 15.104 6.255s11.098-2.249 15.104-6.255c4.006-4.006 6.255-9.438 6.255-15.104s-2.249-11.098-6.255-15.104l-170.667-170.667c-1.984-1.98-4.339-3.546-6.933-4.608-2.59-1.062-5.367-1.6-8.171-1.579z" />
<glyph unicode="&#xe903;" glyph-name="arrow-cube-up" d="M42.667 874.667c-5.658 0-11.084 2.248-15.085 6.249s-6.248 9.427-6.248 15.085c0 35.285 28.715 64 64 64 5.658 0 11.084-2.248 15.085-6.248s6.249-9.427 6.249-15.085c0-5.658-2.248-11.084-6.249-15.085s-9.427-6.248-15.085-6.248c-11.776 0-21.333-9.557-21.333-21.333s-9.557-21.333-21.333-21.333zM469.333 874.667c-11.776 0-21.333 9.557-21.333 21.333s-9.557 21.333-21.333 21.333c-5.658 0-11.084 2.248-15.085 6.248s-6.249 9.427-6.249 15.085c0 5.658 2.248 11.084 6.249 15.085s9.427 6.248 15.085 6.248c35.285 0 64-28.715 64-64 0-5.658-2.249-11.084-6.246-15.085-4.002-4.001-9.429-6.249-15.087-6.249zM42.667 746.667c-5.658 0-11.084 2.248-15.085 6.249s-6.248 9.427-6.248 15.085v42.667c0 5.658 2.248 11.084 6.248 15.085s9.427 6.249 15.085 6.249c5.658 0 11.084-2.248 15.085-6.249s6.249-9.427 6.249-15.085v-42.667c0-5.658-2.248-11.084-6.249-15.085s-9.427-6.249-15.085-6.249zM170.667 917.333c-5.658 0-11.084 2.248-15.085 6.248s-6.249 9.427-6.249 15.085c0 5.658 2.248 11.084 6.249 15.085s9.427 6.248 15.085 6.248h42.667c5.658 0 11.084-2.248 15.085-6.248s6.249-9.427 6.249-15.085c0-5.658-2.248-11.084-6.249-15.085s-9.427-6.248-15.085-6.248h-42.667zM170.667 490.667c-5.658 0-11.084 2.249-15.085 6.246-4.001 4.002-6.249 9.429-6.249 15.087s2.248 11.085 6.249 15.087c4 3.998 9.427 6.246 15.085 6.246h42.667c5.658 0 11.084-2.249 15.085-6.246 4.001-4.002 6.249-9.429 6.249-15.087s-2.248-11.085-6.249-15.087c-4-3.998-9.427-6.246-15.085-6.246h-42.667zM298.667 917.333c-5.658 0-11.084 2.248-15.085 6.248s-6.249 9.427-6.249 15.085c0 5.658 2.248 11.084 6.249 15.085s9.427 6.248 15.085 6.248h42.667c5.658 0 11.084-2.248 15.085-6.248s6.249-9.427 6.249-15.085c0-5.658-2.248-11.084-6.249-15.085s-9.427-6.248-15.085-6.248h-42.667zM298.667 490.667c-5.658 0-11.084 2.249-15.085 6.246-4.001 4.002-6.249 9.429-6.249 15.087s2.248 11.085 6.249 15.087c4 3.998 9.427 6.246 15.085 6.246h42.667c5.658 0 11.084-2.249 15.085-6.246 4.001-4.002 6.249-9.429 6.249-15.087s-2.248-11.085-6.249-15.087c-4-3.998-9.427-6.246-15.085-6.246h-42.667zM426.667 490.667c-5.658 0-11.084 2.249-15.085 6.246-4.001 4.002-6.249 9.429-6.249 15.087s2.248 11.085 6.249 15.087c4 3.998 9.427 6.246 15.085 6.246 11.776 0 21.333 9.557 21.333 21.333 0 5.658 2.249 11.084 6.246 15.085 4.002 4.001 9.429 6.249 15.087 6.249s11.085-2.248 15.087-6.249c3.998-4 6.246-9.427 6.246-15.085 0-35.285-28.715-64-64-64zM469.333 618.667c-5.658 0-11.085 2.248-15.087 6.249-3.998 4-6.246 9.427-6.246 15.085v42.667c0 5.658 2.249 11.084 6.246 15.085 4.002 4.001 9.429 6.249 15.087 6.249s11.085-2.248 15.087-6.249c3.998-4 6.246-9.427 6.246-15.085v-42.667c0-5.658-2.249-11.084-6.246-15.085-4.002-4.001-9.429-6.249-15.087-6.249zM85.333 490.667c-35.285 0-64 28.715-64 64 0 5.658 2.248 11.084 6.248 15.085s9.427 6.249 15.085 6.249c5.658 0 11.084-2.248 15.085-6.249s6.249-9.427 6.249-15.085c0-11.776 9.557-21.333 21.333-21.333 5.658 0 11.084-2.249 15.085-6.246 4.001-4.002 6.249-9.429 6.249-15.087s-2.248-11.085-6.249-15.087c-4-3.998-9.427-6.246-15.085-6.246zM42.667 618.667c-5.658 0-11.084 2.248-15.085 6.249s-6.248 9.427-6.248 15.085v42.667c0 5.658 2.248 11.084 6.248 15.085s9.427 6.249 15.085 6.249c5.658 0 11.084-2.248 15.085-6.249s6.249-9.427 6.249-15.085v-42.667c0-5.658-2.248-11.084-6.249-15.085s-9.427-6.249-15.085-6.249zM469.333 746.667c-5.658 0-11.085 2.248-15.087 6.249-3.998 4-6.246 9.427-6.246 15.085v42.667c0 5.658 2.249 11.084 6.246 15.085 4.002 4.001 9.429 6.249 15.087 6.249s11.085-2.248 15.087-6.249c3.998-4 6.246-9.427 6.246-15.085v-42.667c0-5.658-2.249-11.084-6.246-15.085-4.002-4.001-9.429-6.249-15.087-6.249zM85.333-64c-35.285 0-64 28.715-64 64v341.333c0 35.285 28.715 64 64 64h341.333c35.285 0 64-28.715 64-64v-341.333c0-35.285-28.715-64-64-64h-341.333zM85.333 362.667c-5.658 0-11.084-2.249-15.085-6.246-4.001-4.002-6.249-9.429-6.249-15.087v-341.333c0-5.658 2.248-11.085 6.249-15.087 4-3.998 9.427-6.246 15.085-6.246h341.333c5.658 0 11.085 2.249 15.087 6.246 3.998 4.002 6.246 9.429 6.246 15.087v341.333c0 5.658-2.249 11.085-6.246 15.087-4.002 3.998-9.429 6.246-15.087 6.246h-341.333zM810.667 64c-5.658 0-11.085 2.249-15.087 6.251-3.998 3.998-6.246 9.425-6.246 15.083v609.111l-134.229-134.229c-1.98-1.984-4.335-3.558-6.925-4.632-2.586-1.074-5.363-1.629-8.166-1.63s-5.577 0.548-8.166 1.619c-2.594 1.071-4.945 2.641-6.929 4.623s-3.558 4.332-4.634 6.921c-1.075 2.589-1.63 5.364-1.63 8.167-0.004 2.803 0.546 5.579 1.617 8.17s2.645 4.945 4.625 6.928l170.667 170.667c4.011 3.991 9.442 6.232 15.104 6.232 5.658 0 11.089-2.24 15.104-6.232l170.667-170.667c4.006-4.006 6.255-9.439 6.255-15.104s-2.249-11.098-6.255-15.104c-4.006-4.006-9.442-6.257-15.104-6.257-5.666 0-11.098 2.251-15.104 6.257l-134.229 134.272v-609.111c0-5.658-2.249-11.085-6.251-15.083-3.998-4.002-9.425-6.251-15.083-6.251z" />
<glyph unicode="&#xe904;" glyph-name="arrow-down" d="M513.707 155.008c-12.203 0-23.851 5.248-31.957 14.336l-474.624 536.49c-3.746 4.238-5.654 9.79-5.306 15.435s2.924 10.921 7.162 14.666c4.238 3.745 9.79 5.654 15.435 5.306s10.921-2.924 14.666-7.162l474.667-536.448 474.709 536.448c3.75 4.235 9.028 6.811 14.673 7.163s11.204-1.549 15.45-5.286c2.099-1.857 3.81-4.11 5.039-6.629s1.95-5.255 2.121-8.052c0.171-2.798-0.213-5.601-1.126-8.25s-2.338-5.093-4.198-7.191l-474.709-536.49c-4.023-4.51-8.956-8.115-14.468-10.586-5.517-2.47-11.49-3.75-17.532-3.75z" />
<glyph unicode="&#xe905;" glyph-name="arrow-left" d="M784.734 959.237c4.326-0.007 8.546-1.329 12.1-3.789 3.558-2.461 6.285-5.944 7.812-9.988 1.532-4.044 1.801-8.459 0.764-12.658-1.033-4.199-3.319-7.985-6.554-10.855l-536.533-474.71 536.533-474.667c3.878-3.84 6.144-9.015 6.327-14.473s-1.724-10.773-5.338-14.865c-3.61-4.096-8.653-6.647-14.089-7.142s-10.854 1.109-15.147 4.48l-536.576 474.709c-4.496 4.011-8.095 8.926-10.56 14.426s-3.742 11.456-3.746 17.481c-0.004 6.025 1.264 11.985 3.722 17.485s6.050 10.423 10.541 14.438l536.618 474.795c3.9 3.44 8.922 5.336 14.123 5.333z" />
<glyph unicode="&#xe906;" glyph-name="arrow-right" d="M241.024-64c-4.325 0.009-8.545 1.331-12.102 3.789-3.556 2.462-6.281 5.943-7.813 9.988s-1.798 8.461-0.764 12.659c1.034 4.198 3.321 7.983 6.555 10.854l536.534 474.709-536.534 474.667c-3.88 3.839-6.144 9.018-6.328 14.473s1.726 10.774 5.338 14.867c3.612 4.092 8.653 6.648 14.089 7.142s10.855-1.109 15.147-4.482l536.576-474.71c4.497-4.011 8.094-8.926 10.56-14.426 2.466-5.495 3.742-11.452 3.746-17.481 0.004-6.025-1.267-11.981-3.725-17.485-2.458-5.5-6.050-10.419-10.539-14.438l-536.619-474.795c-3.9-3.439-8.922-5.338-14.123-5.333z" />
<glyph unicode="&#xe907;" glyph-name="arrow-up" d="M22.827 154.752c-4.108-0.004-8.129 1.182-11.58 3.409s-6.186 5.406-7.876 9.148c-1.69 3.746-2.262 7.898-1.649 11.959s2.386 7.859 5.105 10.94l474.709 536.448c3.998 4.538 8.913 8.173 14.421 10.663 5.513 2.49 11.49 3.778 17.536 3.778s12.023-1.288 17.536-3.778c5.508-2.49 10.428-6.125 14.421-10.663l474.709-536.448c2.697-3.081 4.454-6.874 5.060-10.927 0.602-4.049 0.030-8.192-1.651-11.925-1.681-3.738-4.399-6.912-7.834-9.143-3.435-2.236-7.437-3.435-11.533-3.46-3.017 0-5.995 0.636-8.747 1.873s-5.21 3.038-7.211 5.295l-474.752 536.49-474.666-536.49c-2.010-2.257-4.475-4.062-7.233-5.295-2.758-1.237-5.745-1.873-8.767-1.873z" />
<glyph unicode="&#xe908;" glyph-name="attachment" d="M512 960c-152.885 0-256-126.551-256-277.333v-533.333c0-57.368 17.398-110.387 50.583-149.583s82.64-63.75 141.417-63.75c58.777 0 108.232 24.554 141.417 63.75s50.583 92.215 50.583 149.583v405.333c0 38.948-9.745 75.555-31.25 103.5s-55.633 45.833-96.75 45.833c-41.117 0-75.245-17.888-96.75-45.833s-31.25-64.552-31.25-103.5v-320c0-11.782 9.551-21.333 21.333-21.333v0c11.782 0 21.333 9.551 21.333 21.333v0 320c0 31.708 8.263 59.109 22.417 77.5s33.335 29.167 62.917 29.167c29.581 0 48.763-10.776 62.917-29.167s22.417-45.792 22.417-77.5v-405.333c0-48.701-14.858-91.714-40.5-122s-61.583-48.667-108.833-48.667c-47.25 0-83.192 18.38-108.833 48.667s-40.5 73.299-40.5 122v533.333c0 132.012 83.509 234.667 213.333 234.667s213.333-102.655 213.333-234.667v-384c0-11.782 9.551-21.333 21.333-21.333v0c11.782 0 21.333 9.551 21.333 21.333v0 384c0 150.783-103.115 277.333-256 277.333z" />
<glyph unicode="&#xe909;" glyph-name="cadastro" d="M469.333 452.267c-3.307-0.004-6.566 0.764-9.527 2.236-2.957 1.472-5.534 3.614-7.526 6.255-1.988 2.641-3.337 5.705-3.942 8.956-0.602 3.251-0.439 6.596 0.474 9.775l42.667 149.333c0.644 2.235 1.668 4.342 3.029 6.229 0.922 1.705 2.223 3.179 3.797 4.309l303.531 303.787c7.923 7.999 18.697 12.525 29.952 12.581 11.26 0.056 22.080-4.362 30.080-12.282l76.8-76.8c8.064-8.064 12.501-18.773 12.501-30.165 0.013-5.605-1.084-11.157-3.23-16.335s-5.295-9.879-9.271-13.83l-304.896-305.109c-2.573-2.569-5.76-4.433-9.259-5.419l-149.291-42.667c-1.911-0.559-3.895-0.845-5.888-0.853zM500.395 504.661l77.568 22.187-55.424 55.424-22.144-77.611zM618.667 546.475l204.459 204.629-76.459 76.501-204.501-204.629 76.501-76.501zM853.333 781.269l55.125 55.168-76.288 76.331-0.171 10.88v-10.667l-55.125-55.211 76.459-76.501zM42.667-59.733c-23.509 0-42.667 19.115-42.667 42.667v725.334c0 23.509 19.157 42.667 42.667 42.667h469.333c5.658 0 11.085-2.248 15.087-6.249 3.998-4.001 6.246-9.427 6.246-15.085s-2.249-11.084-6.246-15.085c-4.002-4.001-9.429-6.248-15.087-6.248h-469.333v-725.334h938.667v725.334h-42.667c-5.658 0-11.085 2.247-15.087 6.248-3.998 4.001-6.246 9.427-6.246 15.085s2.249 11.084 6.246 15.085c4.002 4.001 9.429 6.249 15.087 6.249h42.667c23.552 0 42.667-19.157 42.667-42.667v-725.334c0-11.315-4.497-22.17-12.497-30.17s-18.854-12.497-30.17-12.497h-938.667zM746.667 68.267c-0.559 0.004-1.114 0.047-1.664 0.128h-210.091c-0.521-0.081-1.050-0.124-1.579-0.128h-362.667c-23.509 0-42.667 19.115-42.667 42.667v469.334c0 23.509 19.157 42.667 42.667 42.667h170.667c5.658 0 11.084-2.248 15.085-6.249s6.249-9.427 6.249-15.085c0-5.658-2.248-11.084-6.249-15.085s-9.427-6.248-15.085-6.248h-170.667v-170.539h170.667c5.658 0 11.084-2.249 15.085-6.246 4.001-4.002 6.249-9.429 6.249-15.087s-2.248-11.085-6.249-15.083c-4-4.002-9.427-6.251-15.085-6.251h-170.667v-85.461h128c23.509 0 42.667-19.115 42.667-42.667v-128h170.667v128c0 11.315 4.497 22.17 12.497 30.17s18.854 12.497 30.17 12.497h170.667c11.315 0 22.17-4.497 30.17-12.497s12.497-18.854 12.497-30.17v-128h85.333v213.461h-170.667c-5.658 0-11.085 2.249-15.087 6.251-3.998 3.998-6.246 9.425-6.246 15.083s2.249 11.085 6.246 15.087c4.002 3.998 9.429 6.246 15.087 6.246h170.667v42.667h-170.667c-5.658 0-11.085 2.249-15.087 6.251-3.998 3.998-6.246 9.425-6.246 15.083s2.249 11.085 6.246 15.087c4.002 3.998 9.429 6.246 15.087 6.246h170.667v127.872c0 5.658 2.249 11.084 6.246 15.085 4.002 4.001 9.429 6.249 15.087 6.249s11.085-2.248 15.087-6.249c3.998-4.001 6.246-9.427 6.246-15.085v-469.334c0-11.315-4.497-22.17-12.497-30.17s-18.854-12.497-30.17-12.497h-106.667zM170.667 110.933h128v128h-128v-128zM725.333 111.061v42.667h-170.667v-42.667h170.667zM725.333 196.395v42.539h-170.667v-42.539h170.667z" />
<glyph unicode="&#xe90a;" glyph-name="calendar" d="M64-64.043c-35.285 0-64 28.715-64 64v810.668c0 35.285 28.715 64 64 64h149.333v64c0 5.658 2.248 11.084 6.249 15.085s9.427 6.248 15.085 6.248c5.658 0 11.084-2.248 15.085-6.248s6.249-9.427 6.249-15.085v-64h512v64c0 5.658 2.249 11.084 6.246 15.085 4.002 4.001 9.429 6.248 15.087 6.248s11.085-2.248 15.087-6.248c3.998-4.001 6.246-9.427 6.246-15.085v-64h149.333c35.285 0 64-28.715 64-64v-810.668c0-35.285-28.715-64-64-64h-896zM42.667-0.043c0-5.658 2.248-11.085 6.249-15.083 4-4.002 9.427-6.251 15.085-6.251h896c5.658 0 11.085 2.249 15.087 6.251 3.998 3.998 6.246 9.425 6.246 15.083v618.668h-938.667v-618.668zM981.333 661.292v149.333c0 5.658-2.249 11.084-6.246 15.085-4.002 4-9.429 6.248-15.087 6.248h-149.333v-106.667c0-5.658-2.249-11.084-6.246-15.085-4.002-4.001-9.429-6.249-15.087-6.249s-11.085 2.248-15.087 6.249c-3.998 4.001-6.246 9.427-6.246 15.085v106.667h-512v-106.667c0-5.658-2.248-11.084-6.249-15.085s-9.427-6.249-15.085-6.249c-5.658 0-11.084 2.248-15.085 6.249s-6.249 9.427-6.249 15.085v106.667h-149.333c-5.658 0-11.084-2.248-15.085-6.248s-6.249-9.427-6.249-15.085v-149.333h938.667z" />
<glyph unicode="&#xe90b;" glyph-name="canceled" horiz-adv-x="983" d="M491.52 925.040c-92.512 0.121-183.157-26.129-261.28-75.68-102.474-64.957-158.433-165.927-167.44-274.16s28.169-223.591 108.8-320.48c92.661-111.775 195.345-214.869 306.8-307.92 3.526-2.957 8.113-4.754 13.12-4.754s9.594 1.796 13.152 4.78l-0.032-0.026c111.465 93.063 214.209 196.128 306.88 307.92 80.653 96.89 117.812 212.246 108.8 320.48s-64.967 209.203-167.44 274.16c-78.123 49.55-168.769 75.801-261.28 75.68zM491.52 884.080c0.012 0 0.027 0 0.041 0s0.029 0 0.043 0h-0.002c84.752 0.125 167.709-23.886 239.28-69.28 92.087-58.373 140.603-146.434 148.64-242.96 8.035-96.526-25.141-201.605-99.522-290.96-87.108-105.081-184.424-201.145-288.48-289.44-104.059 88.294-201.293 184.359-288.4 289.44-0.012 0-0.026 0-0.040 0s-0.028 0-0.042 0h0.002c-74.362 89.356-107.473 194.433-99.44 290.96s56.474 184.587 148.56 242.96c71.57 45.394 154.606 69.405 239.36 69.28zM620.4 652.88l-286.72-286.72c-3.705-3.706-5.997-8.825-5.997-14.48s2.292-10.774 5.997-14.48v0c3.706-3.705 8.825-5.997 14.48-5.997s10.774 2.292 14.48 5.997l286.72 286.72c3.705 3.706 5.997 8.825 5.997 14.48s-2.292 10.774-5.997 14.48v0c-3.706 3.705-8.825 5.997-14.48 5.997s-10.774-2.292-14.48-5.997v0zM333.68 652.88c-3.705-3.706-5.997-8.825-5.997-14.48s2.292-10.774 5.997-14.48l286.72-286.72c3.706-3.705 8.825-5.997 14.48-5.997s10.774 2.292 14.48 5.997v0c3.705 3.706 5.997 8.825 5.997 14.48s-2.292 10.774-5.997 14.48l-286.72 286.72c-3.706 3.705-8.825 5.997-14.48 5.997s-10.774-2.292-14.48-5.997v0z" />
<glyph unicode="&#xe90c;" glyph-name="cd" d="M85.333 715.75c-11.782 0-21.333-9.551-21.333-21.333v0-554.667c0-11.782 9.551-21.333 21.333-21.333v0c11.782 0 21.333 9.551 21.333 21.333v0 554.667c0 11.782-9.551 21.333-21.333 21.333v0zM938.667 715.75c-11.782 0-21.333-9.551-21.333-21.333v0-554.667c0-11.782 9.551-21.333 21.333-21.333v0c11.782 0 21.333 9.551 21.333 21.333v0 554.667c0 11.782-9.551 21.333-21.333 21.333v0zM234.667 289.083c-11.31 0-22.172-4.502-30.167-12.5-8.003-7.998-12.5-18.859-12.5-30.167v-256c0-11.308 4.506-22.17 12.5-30.167 7.994-7.989 18.857-12.5 30.167-12.5h277.333c11.782 0.001 21.332 9.552 21.333 21.333v0 298.667c-0.001 11.782-9.552 21.332-21.333 21.333v0zM234.667 246.417h256v-256h-256zM512 289.083c-11.782-0.001-21.332-9.552-21.333-21.333v0-298.667c0.001-11.782 9.552-21.332 21.333-21.333h277.333c11.31 0 22.172 4.514 30.167 12.5 7.986 7.995 12.5 18.857 12.5 30.167v256c0 11.31-4.504 22.171-12.5 30.167s-18.857 12.5-30.167 12.5zM533.333 246.417h256v-256h-256zM362.667 587.75c-11.307 0-22.17-4.503-30.167-12.5-7.996-7.996-12.5-18.859-12.5-30.167v-277.333c0.001-11.782 9.552-21.332 21.333-21.333h298.667c11.782 0.001 21.332 9.552 21.333 21.333v0 277.333c0 11.31-4.512 22.173-12.5 30.167-7.997 7.995-18.86 12.5-30.167 12.5zM362.667 545.083h256v-256h-256v129.667zM426.667 587.75c-11.782-0.001-21.332-9.552-21.333-21.333v0-106.667c0-11.31 4.514-22.172 12.5-30.167 7.995-7.986 18.857-12.5 30.167-12.5h85.333c11.31 0 22.172 4.514 30.167 12.5 7.986 7.995 12.5 18.857 12.5 30.167v106.667c-0.001 11.782-9.552 21.332-21.333 21.333v0zM448 545.083h85.333v-85.333h-85.333zM298.667 289.083c-11.782-0.001-21.332-9.552-21.333-21.333v0-106.667c0-11.308 4.506-22.17 12.5-30.167 7.994-7.989 18.857-12.5 30.167-12.5h85.333c11.31 0 22.172 4.511 30.167 12.5 7.994 7.997 12.5 18.859 12.5 30.167v106.667c-0.001 11.782-9.552 21.332-21.333 21.333v0zM320 246.417h85.333v-85.333h-85.333zM597.333 289.083c-11.782-0.001-21.332-9.552-21.333-21.333v0-106.667c0-11.31 4.514-22.172 12.5-30.167 7.995-7.986 18.857-12.5 30.167-12.5h85.333c11.31 0 22.172 4.514 30.167 12.5 7.986 7.995 12.5 18.857 12.5 30.167v106.667c-0.001 11.782-9.552 21.332-21.333 21.333v0zM618.667 246.417h85.333v-85.333h-85.333zM492.5 945.25l-441-140.5c-8.805-2.688-16.473-8.155-21.917-15.583s-8.338-16.46-8.25-25.667v-47.75c0-11.308 4.504-22.171 12.5-30.167 7.995-7.994 18.859-12.5 30.167-12.5h896c11.308 0 22.169 4.497 30.167 12.5 7.998 7.995 12.5 18.857 12.5 30.167v48.583c0.009 8.949-2.758 17.636-8 24.917-5.238 7.274-12.662 12.751-21.167 15.583 0.038-0.004-0.074 0.025-0.186 0.052l-0.147 0.031-441.917 140.333c-12.616 4.012-26.134 4.012-38.75 0zM505.417 904.583c4.204 1.337 8.713 1.337 12.917 0l441.667-140.25v-48.583h-896v48c0 0.025 0 0.054 0 0.083s0 0.059 0 0.088v-0.005c0.234 0.071 0.317 0.1 0.4 0.129l-0.15-0.045z" />
<glyph unicode="&#xe90d;" glyph-name="chat1" d="M56.236 903.764c36.007 36.007 84.843 56.236 135.764 56.236h426.667c50.923 0 99.759-20.229 135.765-56.236s56.235-84.843 56.235-135.764v-213.333c0-50.923-20.228-99.759-56.235-135.765s-84.843-56.235-135.765-56.235h-183.889l-185.938-165.278c-6.279-5.581-15.249-6.959-22.912-3.516-7.663 3.439-12.594 11.059-12.594 19.46v149.333h-21.333c-50.921 0-99.758 20.228-135.764 56.235s-56.236 84.843-56.236 135.765v213.333c0 50.921 20.229 99.758 56.236 135.764zM192 917.333c-39.606 0-77.589-15.733-105.594-43.739s-43.739-65.989-43.739-105.594v-213.333c0-39.607 15.733-77.589 43.739-105.596s65.989-43.738 105.594-43.738h42.667c11.782 0 21.333-9.553 21.333-21.333v-123.162l156.494 139.106c3.905 3.473 8.948 5.389 14.173 5.389h192c39.607 0 77.589 15.731 105.596 43.738s43.738 65.988 43.738 105.596v213.333c0 39.606-15.731 77.589-43.738 105.594s-65.988 43.739-105.596 43.739h-426.667zM853.333 426.667c0 11.78 9.553 21.333 21.333 21.333h21.333c33.946 0 66.505-13.487 90.509-37.491s37.491-56.563 37.491-90.509v-128c0-16.811-3.311-33.455-9.745-48.986-6.43-15.526-15.859-29.636-27.746-41.523s-25.997-21.316-41.523-27.746c-15.531-6.434-32.175-9.745-48.986-9.745h-42.667v-106.667c0-8.627-5.197-16.41-13.171-19.708-7.97-3.302-17.148-1.481-23.249 4.621l-121.749 121.754h-97.83c-16.811 0-33.455 3.311-48.986 9.745-15.526 6.43-29.636 15.859-41.523 27.746s-21.316 25.997-27.746 41.523c-6.434 15.531-9.745 32.175-9.745 48.986v64c0 11.78 9.553 21.333 21.333 21.333s21.333-9.553 21.333-21.333v-64c0-11.204 2.206-22.302 6.494-32.657 4.292-10.351 10.577-19.759 18.5-27.682s17.331-14.208 27.682-18.5c10.355-4.288 21.453-6.494 32.657-6.494h106.667c5.658 0 11.085-2.249 15.087-6.246l91.58-91.584v76.497c0 11.78 9.553 21.333 21.333 21.333h64c11.204 0 22.302 2.206 32.657 6.494 10.351 4.292 19.759 10.577 27.682 18.5s14.208 17.331 18.5 27.682c4.288 10.355 6.494 21.453 6.494 32.657v128c0 22.63-8.99 44.335-24.994 60.339s-37.709 24.994-60.339 24.994h-21.333c-11.78 0-21.333 9.553-21.333 21.333z" />
<glyph unicode="&#xe90e;" glyph-name="check-circle" d="M469.333 234.709c-4.834 0.009-9.523 1.647-13.312 4.651l-213.333 170.667c-4.075 3.639-6.601 8.7-7.060 14.144s1.184 10.859 4.592 15.13c3.408 4.271 8.321 7.074 13.731 7.834 5.41 0.764 10.906-0.576 15.36-3.742l196.010-156.8 285.525 387.456c1.664 2.255 3.755 4.16 6.157 5.607s5.065 2.406 7.834 2.825c2.773 0.418 5.598 0.286 8.32-0.388 2.718-0.675 5.282-1.878 7.535-3.542 2.257-1.664 4.16-3.756 5.606-6.157s2.406-5.062 2.825-7.834c0.418-2.771 0.286-5.598-0.388-8.318s-1.877-5.281-3.541-7.537l-298.667-405.333c-1.984-2.692-4.574-4.881-7.561-6.387-2.991-1.502-6.289-2.283-9.634-2.274zM512-63.957c-282.325 0-512 229.675-512 512s229.675 512 512 512c282.325 0 512-229.675 512-512s-229.675-512-512-512zM512 917.376c-258.773 0-469.333-210.56-469.333-469.333s210.56-469.333 469.333-469.333c258.773 0 469.333 210.56 469.333 469.333s-210.56 469.333-469.333 469.333z" />
<glyph unicode="&#xe90f;" glyph-name="client" d="M213.417 128c-23.509 0-42.667 19.115-42.667 42.667v213.333c0 23.552 19.157 42.667 42.667 42.667h298.669c11.315 0 22.165-4.497 30.17-12.497 8-8 12.497-18.854 12.497-30.17v-213.333c0-11.315-4.497-22.17-12.497-30.17-8.004-8-18.854-12.497-30.17-12.497h-298.669zM213.417 170.667h298.669v213.333h-298.669v-213.333zM149.417 0c-35.285 0-64 28.715-64 64v462.080c-26.179 11.549-48.298 30.675-63.507 54.911s-22.811 52.472-21.826 81.068v41.941c0.030 3.25 0.773 6.455 2.176 9.387l73.643 147.243c5.275 10.657 13.433 19.62 23.547 25.873s21.779 9.543 33.669 9.498h757.932c11.895 0.041 23.561-3.256 33.677-9.516 10.112-6.26 18.27-15.233 23.539-25.897l73.557-147.072c0.256-0.469 0.469-1.109 0.683-1.707l0.256-0.683c0.862-2.277 1.31-4.69 1.323-7.125v-42.496c0.853-28.504-6.81-56.617-22.012-80.746-15.198-24.129-37.244-43.18-63.322-54.721v-462.037c0-35.285-28.715-64-64-64h-725.335zM874.752 42.667c5.658 0 11.081 2.249 15.083 6.251 4.002 3.998 6.251 9.425 6.251 15.083v450.517c-3.541-0.427-7.040-0.683-10.368-0.811l-4.864-0.085c-31.795-0.060-62.703 10.462-87.851 29.91-29.163-36.775-70.639-61.765-116.783-70.353-46.14-8.585-93.833-0.192-134.268 23.633-10.637 6.276-20.638 13.564-29.867 21.76-35.469-31.522-81.318-48.858-128.77-48.683-29.278-0.026-58.182 6.588-84.535 19.341-26.353 12.757-49.471 31.322-67.614 54.302-29.321-22.618-66.277-32.973-103.083-28.886v-450.645c0-5.658 2.248-11.085 6.249-15.083 4.001-4.002 9.427-6.251 15.085-6.251h448.002v341.333c0 11.315 4.493 22.17 12.497 30.17 8 8 18.85 12.497 30.17 12.497h170.667c11.315 0 22.165-4.497 30.17-12.497 8-8 12.497-18.854 12.497-30.17v-341.333h21.333zM810.752 42.667v341.333h-170.667v-341.333h170.667zM533.419 557.312c14.003-14.133 30.66-25.357 49.020-33.033 18.355-7.671 38.046-11.644 57.946-11.682 25.438-0.115 50.487 6.212 72.819 18.398 22.332 12.183 41.212 29.824 54.882 51.277v100.394h-234.667v-125.354zM256.084 582.187c13.63-21.335 32.416-38.891 54.624-51.047s47.121-18.517 72.437-18.5c40.32 0 79.319 16.256 107.564 44.715v125.312h-234.626v-100.48zM810.752 584.747c18.901-18.389 43.52-28.459 69.76-28.459 1.237 0 2.432 0 3.669 0.085 26.705 0.957 51.942 12.469 70.17 32.010 18.231 19.541 27.964 45.516 27.068 72.225v22.059h-170.667v-97.92zM42.75 661.333c-0.582-14.907 2.138-29.76 7.965-43.494s14.617-26.010 25.742-35.952c18.432-16.384 42.155-25.429 66.816-25.429 26.146 0.034 51.271 10.151 70.144 28.246v97.962h-170.667v-21.333zM968.235 725.333l-58.112 116.181c-1.758 3.557-4.476 6.549-7.846 8.639s-7.262 3.191-11.226 3.18h-116.949l32-128h162.133zM762.112 725.333l-32 128h-196.693v-128h228.693zM490.752 725.333v128h-196.695l-32-128h228.695zM218.11 725.333l32 128h-116.992c-3.962 0.015-7.848-1.081-11.219-3.162s-6.091-5.065-7.853-8.614l-58.112-116.224h162.176z" />
<glyph unicode="&#xe910;" glyph-name="close" d="M1002.667-63.957c-2.803-0.004-5.581 0.542-8.171 1.613-2.594 1.067-4.949 2.637-6.933 4.617l-475.563 475.605-475.563-475.605c-1.981-1.984-4.333-3.558-6.922-4.634-2.589-1.071-5.364-1.626-8.167-1.63-2.803 0-5.579 0.55-8.17 1.621s-4.945 2.641-6.928 4.621c-1.983 1.98-3.557 4.331-4.632 6.921s-1.629 5.367-1.631 8.166c-0.002 2.803 0.548 5.581 1.619 8.171s2.641 4.945 4.622 6.929l475.562 475.563-475.52 475.605c-4.006 4-6.259 9.428-6.263 15.089s2.241 11.092 6.241 15.098c4 4.006 9.428 6.259 15.089 6.263s11.092-2.241 15.098-6.241l475.563-475.605 475.605 475.563c1.98 1.983 4.335 3.557 6.921 4.632 2.59 1.075 5.367 1.629 8.171 1.631 2.799 0.002 5.577-0.548 8.166-1.619s4.945-2.641 6.929-4.622c1.984-1.981 3.558-4.333 4.634-6.922s1.626-5.364 1.63-8.167c0-2.803-0.55-5.579-1.621-8.17s-2.641-4.945-4.621-6.928l-475.648-475.563 475.563-475.563c2.987-2.982 5.026-6.78 5.854-10.923 0.828-4.139 0.41-8.431-1.203-12.331s-4.348-7.236-7.855-9.583c-3.511-2.347-7.637-3.601-11.857-3.601z" />
<glyph unicode="&#xe911;" glyph-name="commodities" d="M21.333 0c-11.782 0-21.333-9.551-21.333-21.333v0c0-11.782 9.551-21.333 21.333-21.333v0h938.667c11.782 0 21.333 9.551 21.333 21.333v0c0 11.782-9.551 21.333-21.333 21.333v0zM533.333 256c-11.782-0.001-21.332-9.552-21.333-21.333v0-256c0-11.782 9.551-21.333 21.333-21.333v0c11.782 0 21.333 9.551 21.333 21.333v0 234.667h256v-234.667c0-11.782 9.551-21.333 21.333-21.333v0c11.782 0 21.333 9.551 21.333 21.333v0 256c-0.001 11.782-9.552 21.332-21.333 21.333v0zM682.667 521.333c-14.539 0-28.654-4.918-40-14l-293.333-234.667c-4.903-3.942-8.015-9.94-8.015-16.665 0-5.065 1.765-9.717 4.713-13.376l-0.032 0.041c3.942-4.903 9.94-8.015 16.665-8.015 5.065 0 9.717 1.765 13.376 4.713l-0.041-0.032 293.333 234.667c3.792 3.035 8.485 4.667 13.333 4.667s9.542-1.632 13.333-4.667l293.333-234.667c3.618-2.916 8.27-4.681 13.335-4.681 6.725 0 12.723 3.111 16.633 7.973l0.032 0.041c2.916 3.618 4.681 8.27 4.681 13.335 0 6.725-3.111 12.723-7.973 16.633l-0.041 0.032-293.333 234.667c-11.346 9.082-25.461 14-40 14zM531.667 255.917c-5.818-0.465-10.919-3.199-14.477-7.307l-0.023-0.027c-3.209-3.712-5.164-8.586-5.164-13.917 0-6.45 2.863-12.232 7.387-16.144l0.027-0.023 298.667-256c3.712-3.209 8.586-5.164 13.917-5.164 6.45 0 12.232 2.863 16.144 7.387l0.023 0.027c3.209 3.712 5.164 8.586 5.164 13.917 0 6.45-2.863 12.232-7.387 16.144l-0.027 0.023-298.667 256c-3.71 3.201-8.577 5.15-13.9 5.15-0.593 0-1.179-0.024-1.76-0.072l0.076 0.005zM818.083 250.833l-298.667-256c-4.551-3.935-7.414-9.716-7.414-16.167 0-5.33 1.955-10.204 5.187-13.944l-0.023 0.027c3.935-4.551 9.716-7.414 16.167-7.414 5.33 0 10.204 1.955 13.944 5.187l-0.027-0.023 298.667 256c4.551 3.935 7.414 9.716 7.414 16.167 0 5.33-1.955 10.204-5.187 13.944l0.023-0.027c-3.935 4.551-9.716 7.414-16.167 7.414-5.33 0-10.204-1.955-13.944-5.187l0.027 0.023zM917.333 345.583c-11.782 0-21.333-9.551-21.333-21.333v0-345.583c0-11.782 9.551-21.333 21.333-21.333v0c11.782 0 21.333 9.551 21.333 21.333v0 345.583c0 11.782-9.551 21.333-21.333 21.333v0zM448 345.583c-11.782 0-21.333-9.551-21.333-21.333v0-345.583c0-11.782 9.551-21.333 21.333-21.333v0c11.782 0 21.333 9.551 21.333 21.333v0 345.583c0 11.782-9.551 21.333-21.333 21.333v0zM22.333 725.333c-11.782 0-21.333-9.551-21.333-21.333v0c0-11.782 9.551-21.333 21.333-21.333v0h467.333c11.782 0 21.333 9.551 21.333 21.333v0c0 11.782-9.551 21.333-21.333 21.333v0zM21.333 554.667c-11.782 0-21.333-9.551-21.333-21.333v0c0-11.782 9.551-21.333 21.333-21.333v0h469.333c11.782 0 21.333 9.551 21.333 21.333v0c0 11.782-9.551 21.333-21.333 21.333v0zM256 938.667c-67.887 0-132.997-26.997-181-75s-75-113.113-75-181v-704c0-11.782 9.551-21.333 21.333-21.333v0c11.782 0 21.333 9.551 21.333 21.333v0 704c0 56.588 22.487 110.82 62.5 150.833s94.246 62.5 150.833 62.5c56.588 0 110.82-22.487 150.833-62.5 40.012-40.014 62.5-94.246 62.5-150.833v-213.333c0-11.782 9.551-21.333 21.333-21.333v0c11.782 0 21.333 9.551 21.333 21.333v0 213.333c0 67.887-26.999 132.997-75 181-48.004 48.003-113.113 75-181 75z" />
<glyph unicode="&#xe912;" glyph-name="dashboard" d="M64-64c-35.285 0-64 28.715-64 64v213.333c0 35.285 28.715 64 64 64h341.333c35.285 0 64-28.715 64-64v-213.333c0-35.285-28.715-64-64-64h-341.333zM64 234.667c-5.658 0-11.084-2.249-15.085-6.246-4.001-4.002-6.249-9.429-6.249-15.087v-213.333c0-5.658 2.248-11.085 6.249-15.087 4-3.998 9.427-6.246 15.085-6.246h341.333c5.658 0 11.084 2.249 15.085 6.246 4.001 4.002 6.249 9.429 6.249 15.087v213.333c0 5.658-2.248 11.085-6.249 15.087-4 3.998-9.427 6.246-15.085 6.246h-341.333zM618.667-64c-35.285 0-64 28.715-64 64v469.333c0 35.285 28.715 64 64 64h341.333c35.285 0 64-28.715 64-64v-469.333c0-35.285-28.715-64-64-64h-341.333zM618.667 490.667c-5.658 0-11.085-2.249-15.087-6.246-3.998-4.002-6.246-9.429-6.246-15.087v-469.333c0-5.658 2.249-11.085 6.246-15.087 4.002-3.998 9.429-6.246 15.087-6.246h341.333c5.658 0 11.085 2.249 15.087 6.246 3.998 4.002 6.246 9.429 6.246 15.087v469.333c0 5.658-2.249 11.085-6.246 15.087-4.002 3.998-9.429 6.246-15.087 6.246h-341.333zM618.667 618.667c-35.285 0-64 28.715-64 64v213.333c0 35.285 28.715 64 64 64h341.333c35.285 0 64-28.715 64-64v-213.333c0-35.285-28.715-64-64-64h-341.333zM618.667 917.333c-5.658 0-11.085-2.248-15.087-6.249-3.998-4-6.246-9.427-6.246-15.085v-213.333c0-5.658 2.249-11.084 6.246-15.085 4.002-4.001 9.429-6.249 15.087-6.249h341.333c5.658 0 11.085 2.248 15.087 6.249 3.998 4 6.246 9.427 6.246 15.085v213.333c0 5.658-2.249 11.084-6.246 15.085-4.002 4.001-9.429 6.249-15.087 6.249h-341.333zM64 362.667c-35.285 0-64 28.715-64 64v469.333c0 35.285 28.715 64 64 64h341.333c35.285 0 64-28.715 64-64v-469.333c0-35.285-28.715-64-64-64h-341.333zM64 917.333c-5.658 0-11.084-2.248-15.085-6.249s-6.249-9.427-6.249-15.085v-469.333c0-5.658 2.248-11.085 6.249-15.087 4-3.998 9.427-6.246 15.085-6.246h341.333c5.658 0 11.084 2.249 15.085 6.246 4.001 4.002 6.249 9.429 6.249 15.087v469.333c0 5.658-2.248 11.084-6.249 15.085s-9.427 6.249-15.085 6.249h-341.333z" />
<glyph unicode="&#xe913;" glyph-name="dashboard2" d="M213.333-0.171c-5.658 0-11.084 2.249-15.085 6.246-4.001 4.002-6.249 9.429-6.249 15.087s2.248 11.085 6.249 15.087c4 3.998 9.427 6.246 15.085 6.246h256v42.667h-384c-47.061 0-85.333 38.272-85.333 85.333v640c0 47.061 38.272 85.333 85.333 85.333h853.333c47.061 0 85.333-38.272 85.333-85.333v-640c0-47.061-38.272-85.333-85.333-85.333h-426.667v-42.667h298.667c5.658 0 11.085-2.249 15.087-6.246 3.998-4.002 6.246-9.429 6.246-15.087s-2.249-11.085-6.246-15.087c-4.002-3.998-9.429-6.246-15.087-6.246h-597.333zM42.667 170.496c0-23.552 19.157-42.667 42.667-42.667h853.333c11.315 0 22.17 4.497 30.17 12.497s12.497 18.854 12.497 30.17v85.333h-938.667v-85.333zM981.333 298.496v512c0 23.509-19.115 42.667-42.667 42.667h-853.333c-23.509 0-42.667-19.157-42.667-42.667v-512h938.667zM213.333 341.163c-5.658 0-11.084 2.249-15.085 6.246-4.001 4.002-6.249 9.429-6.249 15.087s2.248 11.085 6.249 15.087c4 3.998 9.427 6.246 15.085 6.246v85.504c0 23.509 19.157 42.667 42.667 42.667h85.333c23.509 0 42.667-19.157 42.667-42.667v-85.504h42.667v213.504c0 23.509 19.157 42.667 42.667 42.667h85.333c23.552 0 42.667-19.157 42.667-42.667v-213.504h42.667v341.504c0 23.509 19.115 42.667 42.667 42.667h85.333c23.552 0 42.667-19.157 42.667-42.667v-341.504c5.658 0 11.085-2.249 15.087-6.246 3.998-4.002 6.246-9.429 6.246-15.087s-2.249-11.085-6.246-15.087c-4.002-3.998-9.429-6.246-15.087-6.246h-597.333zM768 384v341.333h-85.333v-341.333h85.333zM554.667 384v213.333h-85.333v-213.333h85.333zM341.333 384v85.333h-85.333v-85.333h85.333z" />
<glyph unicode="&#xe914;" glyph-name="delete" d="M710.25 676.5l-426.667-426.667c-3.885-3.865-6.289-9.214-6.289-15.125s2.404-11.26 6.288-15.124l0.001-0.001c3.86-3.86 9.193-6.247 15.083-6.247s11.223 2.387 15.083 6.247l426.667 426.667c3.885 3.865 6.289 9.214 6.289 15.125s-2.404 11.26-6.288 15.124l-0.001 0.001c-3.86 3.86-9.193 6.247-15.083 6.247s-11.223-2.387-15.083-6.247v0zM298.667 682.75c-5.891-0.001-11.223-2.389-15.083-6.25v0c-3.885-3.865-6.289-9.214-6.289-15.125s2.404-11.26 6.288-15.124l426.668-426.668c3.86-3.86 9.193-6.247 15.083-6.247s11.223 2.387 15.083 6.247v0c3.885 3.865 6.289 9.214 6.289 15.125s-2.404 11.26-6.288 15.124l-426.668 426.668c-3.86 3.861-9.193 6.249-15.083 6.25v0zM512 960.083c-282.517 0-512-229.483-512-512s229.483-512 512-512c282.518 0 512 229.482 512 512s-229.482 512-512 512zM512 917.417c259.459 0 469.333-209.875 469.333-469.333s-209.874-469.333-469.333-469.333c-259.458 0-469.333 209.874-469.333 469.333s209.875 469.333 469.333 469.333z" />
<glyph unicode="&#xe915;" glyph-name="deliveries" d="M213.333 143.167c-11.782 0-21.333-9.551-21.333-21.333v0-119.5c-0.002-9.696 2.735-19.17 7.833-27.417 5.099-8.25 12.325-14.92 21-19.25 17.536-8.764 36.901-13.333 56.5-13.333s38.964 4.57 56.5 13.333c8.675 4.33 15.901 11 21 19.25 5.098 8.247 7.835 17.72 7.833 27.417v119.5c0 11.782-9.551 21.333-21.333 21.333v0c-11.782 0-21.333-9.551-21.333-21.333v0-119.5c0-1.772-0.485-3.493-1.417-5-0.929-1.504-2.25-2.71-3.833-3.5-11.611-5.803-24.433-8.833-37.417-8.833s-25.806 3.031-37.417 8.833c-1.583 0.79-2.904 1.996-3.833 3.5-0.932 1.507-1.417 3.227-1.417 5v119.5c0 11.782-9.551 21.333-21.333 21.333v0zM682.667 143.167c-11.782 0-21.333-9.551-21.333-21.333v0-119.5c0-9.692 2.658-19.172 7.75-27.417 0.013 0 0.028 0 0.043 0s0.030 0 0.045 0h-0.002c5.1-8.245 12.326-14.92 21-19.25 17.537-8.763 36.902-13.333 56.5-13.333s38.963 4.57 56.5 13.333c8.674 4.33 15.9 11.005 21 19.25 0.013 0 0.028 0 0.043 0s0.030 0 0.045 0h-0.002c5.088 8.244 7.746 17.725 7.746 27.417v119.5c0 11.782-9.551 21.333-21.333 21.333v0c-11.782 0-21.333-9.551-21.333-21.333v0-119.5c0-1.777-0.484-3.491-1.417-5s-2.25-2.71-3.833-3.5c-11.613-5.803-24.434-8.833-37.417-8.833s-25.804 3.030-37.417 8.833c-1.583 0.79-2.9 1.992-3.833 3.5s-1.417 3.223-1.417 5v119.5c0 11.782-9.551 21.333-21.333 21.333v0zM341.333 143.167c-11.782-0.001-21.332-9.552-21.333-21.333v0-85.333c0.001-11.782 9.552-21.332 21.333-21.333h341.333c11.782 0.001 21.332 9.552 21.333 21.333v0 85.333c-0.001 11.782-9.552 21.332-21.333 21.333v0zM362.667 100.5h298.667v-42.667h-298.667zM512 441.833c-11.782-0.001-21.332-9.552-21.333-21.333v0-213.333c0.001-11.782 9.552-21.332 21.333-21.333h256c11.782 0.001 21.332 9.552 21.333 21.333v0 192c0 11.31-4.504 22.171-12.5 30.167s-18.857 12.5-30.167 12.5zM533.333 399.167h213.333v-170.667h-213.333zM256 868.5c-11.782 0-21.333-9.551-21.333-21.333v0c0-11.782 9.551-21.333 21.333-21.333v0h512c11.782 0 21.333 9.551 21.333 21.333v0c0 11.782-9.551 21.333-21.333 21.333v0zM256 783.167c-11.782 0-21.333-9.551-21.333-21.333v0c0-11.782 9.551-21.333 21.333-21.333v0h512c11.782 0 21.333 9.551 21.333 21.333v0c0 11.782-9.551 21.333-21.333 21.333v0zM213.333 953.833c-16.966 0-33.253-6.754-45.25-18.75s-18.75-28.284-18.75-45.25v-682.667c0-11.782 9.551-21.333 21.333-21.333v0c11.782 0 21.333 9.551 21.333 21.333v0 682.667c0 5.666 2.243 11.077 6.25 15.083s9.417 6.25 15.083 6.25h597.333c5.665 0 11.081-2.246 15.083-6.25 4.007-4.008 6.25-9.419 6.25-15.083v-682.667c0-11.782 9.551-21.333 21.333-21.333v0c11.782 0 21.333 9.551 21.333 21.333v0 682.667c0 16.968-6.757 33.255-18.75 45.25-11.997 12-28.285 18.75-45.25 18.75zM640 441.833c-11.782 0-21.333-9.551-21.333-21.333v0-85.333c0-11.782 9.551-21.333 21.333-21.333v0c11.782 0 21.333 9.551 21.333 21.333v0 85.333c0 11.782-9.551 21.333-21.333 21.333v0zM277.333 441.833c-11.31 0-22.172-4.502-30.167-12.5-8.003-7.998-12.5-18.859-12.5-30.167v-192c0.001-11.782 9.552-21.332 21.333-21.333h256c11.782 0.001 21.332 9.552 21.333 21.333v0 213.333c-0.001 11.782-9.552 21.332-21.333 21.333v0zM277.333 399.167h213.333v-170.667h-213.333zM384 441.833c-11.782 0-21.333-9.551-21.333-21.333v0-85.333c0-11.782 9.551-21.333 21.333-21.333v0c11.782 0 21.333 9.551 21.333 21.333v0 85.333c0 11.782-9.551 21.333-21.333 21.333v0zM405.333 612.5c-11.308 0-22.171-4.503-30.167-12.5s-12.5-18.859-12.5-30.167v-149.333c0.001-11.782 9.552-21.332 21.333-21.333h256c11.782 0.001 21.332 9.552 21.333 21.333v0 149.333c0 11.31-4.511 22.172-12.5 30.167-7.997 7.994-18.859 12.5-30.167 12.5zM405.333 569.833h213.333v-128h-213.333zM512 612.5c-11.782 0-21.333-9.551-21.333-21.333v0-85.333c0-11.782 9.551-21.333 21.333-21.333v0c11.782 0 21.333 9.551 21.333 21.333v0 85.333c0 11.782-9.551 21.333-21.333 21.333v0zM141.167 228.5c-7.274 0-14.39-1.864-20.75-5.417-6.361-3.545-11.679-8.649-15.5-14.833-3.819-6.189-6.011-13.317-6.333-20.583s1.158-14.497 4.417-21l15.5-30.833c5.311-10.628 13.481-19.499 23.583-25.75 10.101-6.244 21.701-9.577 33.583-9.583h672.667c11.883 0.006 23.485 3.341 33.583 9.583 10.102 6.25 18.272 15.121 23.583 25.75l15.5 30.833c3.258 6.5 4.741 13.724 4.417 21-0.324 7.265-2.515 14.396-6.333 20.583-3.821 6.183-9.145 11.288-15.5 14.833-6.354 3.548-13.476 5.417-20.75 5.417zM141.167 185.833h741.667l-15.5-30.833c0-0.013 0-0.028 0-0.043s0-0.030 0-0.045v0.002c-1.772-3.545-4.461-6.497-7.833-8.583-3.353-2.072-7.232-3.15-11.167-3.167h-672.667c-3.933 0.019-7.817 1.098-11.167 3.169-3.372 2.086-6.061 5.037-7.833 8.583 0 0.013 0 0.028 0 0.043s0 0.030 0 0.045v-0.002z" />
<glyph unicode="&#xe916;" glyph-name="delivery-truck-2" d="M341.333 64c-70.571 0-128 57.429-128 128s57.429 128 128 128c70.571 0 128-57.429 128-128s-57.429-128-128-128zM341.333 277.333c-47.061 0-85.333-38.272-85.333-85.333s38.272-85.333 85.333-85.333c47.061 0 85.333 38.272 85.333 85.333s-38.272 85.333-85.333 85.333zM810.667 64c-70.571 0-128 57.429-128 128s57.429 128 128 128c70.571 0 128-57.429 128-128s-57.429-128-128-128zM810.667 277.333c-47.061 0-85.333-38.272-85.333-85.333s38.272-85.333 85.333-85.333c47.061 0 85.333 38.272 85.333 85.333s-38.272 85.333-85.333 85.333zM64 149.333c-35.285 0-64 28.715-64 64v256c0.28 50.82 20.587 99.481 56.515 135.425s84.58 56.272 135.4 56.575h149.419v106.667c0 35.285 28.715 64 64 64h554.667c35.285 0 64-28.715 64-64v-554.667c0-5.658-2.249-11.085-6.246-15.087-4.002-3.998-9.429-6.246-15.087-6.246s-11.085 2.249-15.087 6.246c-3.998 4.002-6.246 9.429-6.246 15.087v554.667c0 5.658-2.249 11.084-6.246 15.085-4.002 4.001-9.429 6.249-15.087 6.249h-554.667c-5.658 0-11.084-2.248-15.085-6.249s-6.249-9.427-6.249-15.085v-384c0-5.658-2.248-11.085-6.249-15.087-4-3.998-9.427-6.246-15.085-6.246s-11.084 2.249-15.085 6.246c-4.001 4.002-6.249 9.429-6.249 15.087v21.333h-298.667v-128h128c5.658 0 11.084-2.249 15.085-6.246 4.001-4.002 6.249-9.429 6.249-15.087s-2.248-11.085-6.249-15.087c-4-3.998-9.427-6.246-15.085-6.246h-128v-21.333c0-5.658 2.248-11.085 6.249-15.087 4-3.998 9.427-6.246 15.085-6.246h85.333c5.658 0 11.084-2.249 15.085-6.246 4.001-4.002 6.249-9.429 6.249-15.087s-2.248-11.085-6.249-15.087c-4-3.998-9.427-6.246-15.085-6.246h-85.333zM341.333 448v170.667h-149.291c-39.555-0.224-77.426-16.040-105.392-44.014s-43.771-65.848-43.984-105.405v-21.248h298.667zM533.333 192c-5.658 0-11.085 2.249-15.087 6.246-3.998 4.002-6.246 9.429-6.246 15.087s2.249 11.085 6.246 15.087c4.002 3.998 9.429 6.246 15.087 6.246h85.333c5.658 0 11.085-2.249 15.087-6.246 3.998-4.002 6.246-9.429 6.246-15.087s-2.249-11.085-6.246-15.087c-4.002-3.998-9.429-6.246-15.087-6.246h-85.333z" />
<glyph unicode="&#xe917;" glyph-name="email-action-unread" d="M106.667 87.296c-28.279 0.034-55.391 11.285-75.387 31.279-19.997 19.998-31.245 47.108-31.279 75.388v512.001c-0.027 14.048 2.743 27.961 8.149 40.927s13.34 24.726 23.339 34.593c9.862 9.887 21.581 17.728 34.482 23.073s26.732 8.089 40.696 8.074h810.667c14.374 0.023 28.604-2.877 41.818-8.525 13.218-5.648 25.152-13.925 35.068-24.329 19.072-19.669 29.781-45.995 29.781-73.813v-512.001c0-58.795-47.872-106.667-106.667-106.667h-810.667zM50.176 735.873c-4.958-9.187-7.54-19.469-7.509-29.909v-512.001c0-35.285 28.715-64 64-64h810.667c35.285 0 64 28.715 64 64v512.001c0 10.581-2.56 20.736-7.509 29.909l-448.341-366.465c-3.802-3.11-8.567-4.813-13.483-4.813s-9.677 1.702-13.483 4.813l-448.341 366.465zM512 413.525l429.995 351.446c-7.804 3.3-16.188 4.998-24.661 4.992h-810.667c-8.533 0-16.896-1.707-24.661-4.992l429.995-351.446z" />
<glyph unicode="&#xe918;" glyph-name="end" d="M765.948 32.811c-3.93-0.009-7.782 1.071-11.136 3.119-3.349 2.048-6.067 4.988-7.851 8.486l-215.68 421.376-215.68-421.376c-1.261-2.505-3.005-4.732-5.133-6.558-2.128-1.822-4.596-3.209-7.262-4.075s-5.478-1.19-8.271-0.964c-2.794 0.23-5.515 1.011-8.005 2.295-5.035 2.581-8.841 7.053-10.585 12.437-1.743 5.38-1.282 11.234 1.283 16.277l229.675 448.725-23.68 46.208-267.477-159.787c-9.429-5.632-18.389-8.491-26.667-8.491-7.083-0.124-13.99 2.214-19.541 6.613-5.504 4.437-17.365 17.749-8.107 45.525l42.965 128.896-126.891 27.136c-27.776 5.931-33.835 21.419-34.987 30.080-1.152 8.704 0.683 25.216 25.941 38.187l284.672 146.176-9.771 19.029c-1.692 3.249-2.515 6.881-2.39 10.542s1.196 7.228 3.107 10.353c1.911 3.126 4.597 5.704 7.798 7.485s6.808 2.705 10.472 2.68c8.064 0 15.317-4.437 18.987-11.605l18.987-37.077c0.368-0.582 0.682-1.196 0.939-1.835l129.621-253.227 129.621 253.227c0.119 0.288 0.247 0.573 0.384 0.853l0.555 0.981 18.944 37.035c1.276 2.496 3.034 4.716 5.171 6.534 2.133 1.817 4.608 3.196 7.275 4.058s5.483 1.19 8.277 0.965c2.795-0.225 5.517-0.998 8.013-2.276s4.715-3.034 6.532-5.17c1.818-2.135 3.196-4.608 4.058-7.276s1.19-5.48 0.964-8.275c-0.222-2.795-0.998-5.519-2.274-8.015l-9.771-19.029 284.672-146.176c25.216-12.971 27.093-29.483 25.941-38.144-1.152-8.704-7.211-24.149-34.987-30.123l-126.933-27.051 42.965-128.896c9.259-27.819-2.603-41.131-8.107-45.568-5.551-4.399-12.459-6.737-19.541-6.613-8.235 0-17.237 2.859-26.667 8.491l-267.52 159.787-23.637-46.208 229.717-448.725c1.643-3.251 2.428-6.869 2.283-10.509-0.149-3.644-1.225-7.185-3.127-10.295-1.903-3.106-4.57-5.675-7.744-7.462s-6.754-2.735-10.398-2.752zM237.052 608.342c2.929-0.639 5.69-1.885 8.107-3.658s4.434-4.034 5.922-6.636c1.488-2.602 2.413-5.487 2.716-8.469s-0.023-5.995-0.958-8.842l-45.824-137.43 257.152 153.6-91.221 178.219-269.312-138.325 133.419-28.459zM855.548 443.307l-45.824 137.43c-0.956 2.847-1.301 5.864-1.011 8.853s1.212 5.884 2.697 8.493c1.485 2.61 3.507 4.877 5.931 6.652s5.193 3.019 8.128 3.65l133.461 28.459-269.355 138.325-91.179-178.261 257.152-153.6z" />
<glyph unicode="&#xe919;" glyph-name="filter-1" d="M468.821-64c-35.285 0-64 28.715-64 64v415.701l-328.917 441.941c-7.088 9.52-11.394 20.821-12.436 32.644s1.219 23.703 6.533 34.316c5.313 10.613 13.469 19.542 23.559 25.792s21.718 9.575 33.587 9.604h768.811c11.87-0.030 23.497-3.355 33.587-9.604s18.244-15.179 23.556-25.792c5.316-10.613 7.578-22.493 6.532-34.316-1.041-11.823-5.346-23.124-12.433-32.644l-329.045-441.856v-351.787c0-20.011-9.557-39.168-25.6-51.2l-85.333-64c-11.008-8.277-24.661-12.8-38.4-12.8zM127.146 917.333c-3.962 0-7.846-1.103-11.216-3.186s-6.094-5.063-7.866-8.607c-1.772-3.544-2.522-7.511-2.166-11.456s1.803-7.715 4.18-10.884l333.184-447.701c2.743-3.674 4.224-8.132 4.224-12.715v-422.784c0-3.964 1.101-7.846 3.187-11.217 2.082-3.371 5.060-6.093 8.606-7.863 3.541-1.771 7.509-2.522 11.456-2.167 3.947 0.358 7.714 1.805 10.884 4.181l85.333 64c2.641 1.997 4.783 4.574 6.263 7.535s2.257 6.221 2.27 9.532v358.827c0 4.565 1.493 9.088 4.224 12.757l333.312 447.616c2.359 3.174 3.793 6.94 4.143 10.88 0.346 3.94-0.405 7.899-2.176 11.437s-4.484 6.515-7.846 8.602c-3.358 2.086-7.232 3.199-11.187 3.215h-768.811z" />
<glyph unicode="&#xe91a;" glyph-name="fiscal" d="M767.872 511.445c-27.972-0.068-55.181 9.114-77.397 26.112-20.096 15.263-35.213 36.141-43.447 59.994-8.23 23.854-9.207 49.613-2.803 74.022l-58.667-29.312c-2.505-1.261-5.231-2.015-8.026-2.219s-5.606 0.146-8.265 1.030c-2.658 0.884-5.12 2.285-7.236 4.122s-3.853 4.073-5.103 6.582c-2.534 5.058-2.957 10.916-1.173 16.285 1.788 5.369 5.632 9.809 10.688 12.344l67.371 33.664-39.808 92.971c-2.223 5.143-3.401 10.675-3.477 16.277-0.073 5.602 0.964 11.163 3.051 16.363 3.123 7.945 8.576 14.759 15.642 19.548 7.070 4.789 15.415 7.331 23.953 7.289 2.987 0 5.973-0.299 8.917-0.939l231.424-49.579c6.366-1.381 12.331-4.198 17.442-8.236s9.233-9.191 12.049-15.065c2.816-5.874 4.25-12.314 4.198-18.828-0.055-6.513-1.596-12.929-4.506-18.756l-25.003-50.005c13.15-21.937 19.426-47.31 18.018-72.847s-10.432-50.068-25.911-70.427c-11.904-15.744-27.315-28.495-45.009-37.24-17.694-8.751-37.184-13.252-56.922-13.15zM694.443 682.667c-7.625-12.96-11.691-27.704-11.785-42.741-0.098-15.037 3.785-29.832 11.247-42.886s18.24-23.905 31.249-31.453c13.005-7.549 27.772-11.526 42.807-11.531 15.040-0.004 29.811 3.965 42.82 11.505s23.795 18.385 31.266 31.436c7.467 13.050 11.358 27.843 11.273 42.88s-4.143 29.783-11.763 42.748l-147.115 0.043zM840.149 725.334l24.448 48.896-231.339 49.579 42.155-98.475h164.736zM874.667-42.667c-5.658 0-11.085 2.249-15.083 6.251-4.002 3.998-6.251 9.425-6.251 15.083v320c0 5.658 2.249 11.085 6.251 15.087 3.998 3.998 9.425 6.246 15.083 6.246s11.085-2.249 15.087-6.246c3.998-4.002 6.246-9.429 6.246-15.087v-213.333c0-11.315 4.497-22.17 12.497-30.17s18.854-12.497 30.17-12.497c11.315 0 22.17 4.497 30.17 12.497 8.004 8 12.497 18.854 12.497 30.17v234.667c0 58.795-47.872 106.667-106.667 106.667h-30.592l-57.771-96.299c-3.755-6.272-10.581-9.984-18.304-9.984s-14.549 3.712-18.304 9.984l-57.771 96.299h-51.712c-14.165 0-27.349-6.869-35.328-18.389l-171.776-229.077c-3.413-4.497-8.465-7.467-14.057-8.265-5.591-0.802-11.271 0.636-15.81 3.998-2.26 1.668-4.166 3.767-5.606 6.178s-2.387 5.082-2.784 7.863c-0.397 2.778-0.237 5.611 0.471 8.329 0.708 2.714 1.949 5.265 3.652 7.497l171.306 228.437c7.868 11.217 18.338 20.361 30.507 26.654s25.681 9.549 39.381 9.485h63.829c7.467 0 14.464-3.968 18.304-10.368l45.696-76.203 45.696 76.203c1.903 3.157 4.587 5.769 7.791 7.586 3.209 1.818 6.827 2.773 10.513 2.782h42.667c82.347 0 149.333-66.987 149.333-149.333v-234.667c-0.026-14.967-3.985-29.666-11.482-42.624s-18.266-23.718-31.228-31.202c-12.962-7.484-27.665-11.43-42.637-11.443-14.967-0.013-29.679 3.908-42.654 11.371v-32.811c0-5.658-2.249-11.085-6.246-15.083-4.002-4.002-9.429-6.251-15.087-6.251zM618.667-42.667c-5.658 0-11.085 2.249-15.087 6.251-3.998 3.998-6.246 9.425-6.246 15.083v200.747l-17.408-21.973c-1.719-2.219-3.866-4.070-6.31-5.453-2.445-1.378-5.141-2.257-7.932-2.586-2.79-0.324-5.615-0.090-8.311 0.691-2.697 0.777-5.214 2.086-7.398 3.849-4.442 3.503-7.309 8.627-7.97 14.242-0.666 5.619 0.926 11.268 4.429 15.71l55.467 70.101c2.731 3.507 6.498 6.063 10.765 7.305s8.815 1.105 13.001-0.393c4.177-1.459 7.795-4.181 10.355-7.791 2.564-3.605 3.938-7.923 3.938-12.348v-262.101c0.004-2.799-0.542-5.572-1.609-8.158-1.067-2.59-2.637-4.941-4.612-6.925-1.98-1.98-4.326-3.554-6.912-4.625s-5.359-1.626-8.158-1.626zM192-42.667c-28.279 0.034-55.391 11.281-75.387 31.279s-31.245 47.108-31.279 75.388v23.509c-24.101 4.885-45.768 17.963-61.322 37.009s-24.038 42.889-24.011 67.482v256c0 5.658 2.248 11.085 6.248 15.087 4.001 3.998 9.427 6.246 15.085 6.246s11.084-2.249 15.085-6.246c4.001-4.002 6.248-9.429 6.248-15.087v-256c0-35.285 28.715-64 64-64h21.333v277.333c0 5.658 2.248 11.085 6.249 15.087 4.001 3.998 9.427 6.246 15.085 6.246s11.084-2.249 15.085-6.246c4.001-4.002 6.249-9.429 6.249-15.087v-277.333h341.333c11.315 0 22.17-4.497 30.17-12.497s12.497-18.854 12.497-30.17v-21.333c0-58.795-47.829-106.667-106.667-106.667h-256zM128 64c0-35.285 28.715-64 64-64h256c35.285 0 64 28.715 64 64v21.333h-384v-21.333zM234.667 469.333c-129.408 0-234.667 105.259-234.667 234.667s105.259 234.667 234.667 234.667c5.658 0 11.084-2.248 15.085-6.248s6.249-9.427 6.249-15.085c0-5.658-2.248-11.084-6.249-15.085s-9.427-6.249-15.085-6.249c-105.856 0-192-86.144-192-192s86.144-192 192-192c105.856 0 192 86.144 192 192 0 5.658 2.249 11.084 6.246 15.085 4.002 4.001 9.429 6.249 15.087 6.249s11.085-2.248 15.087-6.249c3.998-4 6.246-9.427 6.246-15.085 0-129.408-105.259-234.667-234.667-234.667zM231.254 647.894c-9.223-0.028-18.201 2.97-25.557 8.533l-69.163 51.84c-2.26 1.667-4.166 3.766-5.606 6.176s-2.387 5.083-2.784 7.863c-0.397 2.78-0.237 5.611 0.471 8.328s1.949 5.266 3.653 7.499c3.422 4.489 8.472 7.452 14.060 8.25s11.265-0.632 15.807-3.983l69.12-51.84 200.362 240.427c1.792 2.152 3.994 3.929 6.473 5.231s5.193 2.102 7.983 2.356c2.786 0.254 5.598-0.045 8.273-0.878s5.158-2.185 7.309-3.978c2.15-1.793 3.93-3.992 5.231-6.472s2.103-5.192 2.355-7.981c0.256-2.789-0.043-5.601-0.879-8.275-0.832-2.674-2.185-5.158-3.977-7.309l-200.362-240.427c-3.995-4.814-9.003-8.687-14.668-11.343s-11.845-4.027-18.1-4.017z" />
<glyph unicode="&#xe91b;" glyph-name="graph-stats-ascend" d="M53.333 160c-4.12-0.009-8.155 1.178-11.616 3.413s-6.201 5.423-7.889 9.182c-1.688 3.759-2.251 7.927-1.621 11.998 0.63 4.075 2.425 7.876 5.169 10.948l313.003 352.001c11.318 12.559 27.037 20.278 43.894 21.556s33.559-3.98 46.645-14.687l190.635-158.849c4.574-3.691 10.389-5.487 16.243-5.018 5.858 0.469 11.315 3.166 15.245 7.535l260.395 295.212h-248.747c-5.658 0-11.085 2.248-15.087 6.249-3.998 4.001-6.246 9.427-6.246 15.085s2.249 11.084 6.246 15.085c4.002 4 9.429 6.248 15.087 6.248h296.021c0.981 0 2.901-0.299 3.84-0.555 1.254-0.125 2.487-0.412 3.669-0.853 1.417-0.57 2.761-1.3 4.011-2.176 0.085 0 1.365-0.64 2.645-1.792l1.109-1.152c0.823-0.889 1.553-1.861 2.176-2.901 0.512-0.683 1.28-1.707 1.963-3.157 0.683-1.493 0.939-2.816 1.109-3.541 0.452-1.717 0.738-3.475 0.853-5.248v-255.105c0-5.658-2.249-11.085-6.251-15.083-3.998-4.002-9.425-6.251-15.083-6.251s-11.085 2.249-15.087 6.251c-3.998 3.998-6.246 9.425-6.246 15.083v198.742l-254.421-288.47c-6.165-6.895-13.713-12.416-22.153-16.201-8.439-3.789-17.579-5.751-26.829-5.773-15.061 0-29.824 5.291-41.557 14.891l-190.592 158.848c-4.59 3.712-10.428 5.517-16.31 5.047s-11.361-3.174-15.306-7.565l-312.875-351.829c-2.024-2.249-4.497-4.049-7.261-5.286-2.763-1.233-5.755-1.873-8.782-1.882z" />
<glyph unicode="&#xe91c;" glyph-name="graph-stats-descend" d="M674.645 160c-5.658 0-11.085 2.249-15.087 6.251-3.998 3.998-6.246 9.425-6.246 15.083s2.249 11.085 6.246 15.087c4.002 3.998 9.429 6.246 15.087 6.246h248.875l-260.608 295.339c-3.947 4.361-9.421 7.027-15.283 7.458s-11.665-1.417-16.205-5.154l-190.336-158.592c-11.789-9.677-26.562-14.985-41.814-15.019-18.517 0-36.309 7.893-48.768 21.632l-313.131 352.172c-1.86 2.096-3.289 4.537-4.206 7.185s-1.303 5.45-1.136 8.247c0.336 5.649 2.902 10.933 7.135 14.69s9.784 5.679 15.433 5.343c2.797-0.166 5.534-0.882 8.055-2.106s4.775-2.932 6.636-5.028l313.003-352.001c3.968-4.373 9.472-7.044 15.363-7.458s11.713 1.463 16.253 5.239l190.294 158.592c13.056 10.764 29.769 16.062 46.639 14.79 16.875-1.272 32.602-9.017 43.9-21.617l254.549-288.512v198.571c0 5.658 2.249 11.085 6.246 15.087 4.002 3.998 9.429 6.246 15.087 6.246s11.085-2.249 15.083-6.246c4.002-4.002 6.251-9.429 6.251-15.087v-255.104c0-0.64-0.043-1.28-0.171-1.92-0.128-1.024-0.341-1.792-0.427-2.219-0.277-1.643-0.747-3.247-1.408-4.779l-0.64-1.195c-1.805-3.379-4.493-6.208-7.774-8.183-3.285-1.975-7.040-3.025-10.871-3.038h-296.021z" />
<glyph unicode="&#xe91d;" glyph-name="home" d="M682.667-64c-5.658 0-11.085 2.249-15.087 6.246-3.998 4.002-6.246 9.429-6.246 15.087v256c0 82.347-66.987 149.333-149.333 149.333s-149.333-66.987-149.333-149.333v-256c0-5.658-2.248-11.085-6.249-15.087-4-3.998-9.427-6.246-15.085-6.246h-277.333c-35.285 0-64 28.715-64 64v533.888c0 19.84 8.96 38.187 24.576 50.389l448 350.635c11.221 8.789 25.216 13.611 39.424 13.611s28.203-4.821 39.424-13.611l448-350.635c15.616-12.203 24.576-30.549 24.576-50.347v-533.93c0-35.285-28.715-64-64-64h-277.333zM960-21.333c5.658 0 11.085 2.249 15.087 6.246 3.998 4.002 6.246 9.429 6.246 15.087v533.888c0.009 3.235-0.73 6.429-2.146 9.335-1.421 2.907-3.49 5.449-6.046 7.433l-448 350.635c-3.733 2.976-8.363 4.6-13.133 4.608-4.774 0.008-9.408-1.601-13.15-4.565l-448-350.635c-2.557-1.992-4.625-4.542-6.045-7.456s-2.154-6.114-2.147-9.355v-533.888c0-5.658 2.248-11.085 6.249-15.087 4-3.998 9.427-6.246 15.085-6.246h256v234.667c0 105.856 86.144 192 192 192s192-86.144 192-192v-234.667h256z" />
<glyph unicode="&#xe91e;" glyph-name="home1" horiz-adv-x="1347" d="M673.684 933.053c-13.937 0-27.656-3.564-39.789-10.421l-593.263-335.368c-8.24-4.715-13.704-13.454-13.704-23.468 0-4.878 1.296-9.453 3.562-13.4l-0.069 0.131c4.715-8.24 13.454-13.704 23.468-13.704 4.878 0 9.453 1.296 13.4 3.562l-0.131-0.069 593.263 335.368c4.046 2.286 8.617 3.474 13.263 3.474s9.218-1.188 13.263-3.474l593.263-335.368c3.816-2.197 8.391-3.493 13.269-3.493 10.015 0 18.754 5.463 23.399 13.572l0.069 0.132c2.197 3.816 3.493 8.391 3.493 13.269 0 10.015-5.463 18.754-13.572 23.399l-0.132 0.070-593.263 335.368c-12.134 6.857-25.853 10.421-39.789 10.421zM215.579 682.316c-14.883 0-26.947-12.065-26.947-26.947v0-603.579c0-21.43 8.537-42.005 23.684-57.158 15.152-15.149 35.725-23.684 57.158-23.684h242.526c14.286 0 28.006 5.686 38.105 15.789 10.11 10.102 15.789 23.822 15.789 38.105v269.474h215.579v-269.474c0-14.286 5.69-28.005 15.789-38.105s23.819-15.789 38.105-15.789h242.526c21.433 0 42.005 8.532 57.158 23.684 15.143 15.151 23.684 35.725 23.684 57.158v603.579c0 14.883-12.065 26.947-26.947 26.947v0c-14.883 0-26.947-12.065-26.947-26.947v0-603.579c0-7.153-2.827-13.983-7.895-19.053-5.058-5.058-11.9-7.895-19.053-7.895h-242.526v269.474c0 14.286-5.701 28.006-15.789 38.105-10.107 10.107-23.832 15.789-38.105 15.789h-215.579c-14.273 0-27.998-5.683-38.105-15.789-10.088-10.099-15.789-23.819-15.789-38.105v-269.474h-242.526c-7.155 0-13.99 2.833-19.053 7.895-5.066 5.068-7.895 11.897-7.895 19.053v603.579c0 14.883-12.065 26.947-26.947 26.947v0z" />
<glyph unicode="&#xe91f;" glyph-name="incompatible-schedule" d="M491.52-37.519c-259.727 0-471.040 211.313-471.040 471.040s211.313 471.039 471.040 471.039c259.727 0 471.040-211.313 471.040-471.039s-211.313-471.040-471.040-471.040zM491.52 863.6c-237.158 0-430.080-192.922-430.080-430.079s192.922-430.080 430.080-430.080c237.158 0 430.080 192.922 430.080 430.080s-192.922 430.079-430.080 430.079zM532.48 208.077c-33.874 0-61.44 27.566-61.44 61.44v266.24h-61.44c-5.432 0-10.641 2.154-14.481 5.997s-5.999 9.050-5.999 14.482c0 5.431 2.158 10.641 5.999 14.481s9.050 5.999 14.481 5.999h61.44c22.569 0 40.96-18.391 40.96-40.958v-266.24c0-5.435 2.159-10.641 5.997-14.483 3.842-3.842 9.052-5.997 14.483-5.997h61.44c5.431 0 10.641-2.159 14.483-6.001 3.838-3.842 5.997-9.048 5.997-14.479 0-5.435-2.159-10.641-5.997-14.483-3.842-3.842-9.052-5.997-14.483-5.997h-61.44zM481.075 617.88c-8.147 0-15.962 3.237-21.721 8.998-5.763 5.761-8.999 13.575-8.999 21.722s3.236 15.961 8.999 21.722c5.759 5.761 13.574 8.998 21.721 8.998s15.962-3.237 21.721-8.998c5.763-5.761 8.999-13.575 8.999-21.722s-3.236-15.961-8.999-21.722c-5.759-5.761-13.574-8.998-21.721-8.998z" />
<glyph unicode="&#xe920;" glyph-name="lat-long" horiz-adv-x="983" d="M511.36 699.28c-32.631 3.73-65.601-1.848-95.2-16.080s-54.619-36.504-72.080-64.32c-17.461-27.817-26.688-60.037-26.64-92.88 0.045-11.276 9.197-20.4 20.48-20.4 0 0 0 0 0 0v0c11.311 0 20.48 9.169 20.48 20.48v0c-0.037 25.122 7.044 49.763 20.4 71.040s32.399 38.314 55.040 49.2c22.641 10.886 47.921 15.173 72.88 12.32s48.642-12.765 68.24-28.48c19.601-15.715 34.352-36.578 42.56-60.32 8.209-23.744 9.548-49.377 3.84-73.84-5.705-24.465-18.215-46.821-36.080-64.48s-40.43-29.855-64.96-35.28l0.48 0.082c-13.889-2.74-26.379-10.166-35.44-21.040-9.059-10.881-14.136-24.568-14.32-38.722 0-0.036 0-0.078 0-0.121s0-0.085 0-0.127v0.007-45.6c0-11.311 9.169-20.48 20.48-20.48v0c11.311 0 20.48 9.169 20.48 20.48v0 45.28c0.061 4.77 1.751 9.379 4.8 13.040 3.055 3.666 7.246 6.198 11.92 7.12 0.282 0.043 0.445 0.071 0.607 0.102l-0.127-0.020c32.068 7.092 61.443 23.073 84.8 46.16s39.741 52.334 47.2 84.32c7.464 31.988 5.771 65.442-4.96 96.48-10.732 31.041-30.053 58.414-55.68 78.96-25.622 20.546-56.569 33.39-89.2 37.12zM491.52 208.64c-8.152 0-16.010-3.29-21.76-9.040s-8.96-13.548-8.96-21.68c0-6.082 1.845-12.088 5.2-17.12 3.362-5.025 8.123-8.949 13.76-11.28 5.597-2.315 11.776-2.957 17.76-1.76 5.971 1.182 11.472 4.111 15.76 8.4 4.293 4.293 7.214 9.768 8.4 15.76 1.174 5.929 0.561 12.069-1.76 17.68 0 0.012 0 0.027 0 0.041s0 0.029 0 0.043v-0.002c-2.318 5.573-6.277 10.369-11.36 13.758-5.056 3.383-10.954 5.2-17.040 5.2zM489.52 187.92c2.011 0.401 4.067 0.205 5.92-0.56 1.894-0.783 3.45-2.102 4.56-3.76h0.082c1.11-1.665 1.68-3.653 1.68-5.68 0-2.7-1.132-5.372-3.040-7.28s-4.479-2.96-7.2-2.96c-2.039 0-3.991 0.55-5.68 1.68-1.716 1.144-2.999 2.729-3.76 4.56v0.082c-0.773 1.867-1.027 3.884-0.64 5.84 0.401 2.019 1.446 3.847 2.88 5.28 1.421 1.421 3.203 2.405 5.2 2.8zM491.52 925.040c-271.216 0-491.52-220.304-491.52-491.52s220.304-491.52 491.52-491.52c271.217 0 491.52 220.303 491.52 491.52s-220.303 491.52-491.52 491.52zM491.52 884.080c249.081 0 450.56-201.481 450.56-450.56 0-249.081-201.479-450.56-450.56-450.56s-450.56 201.479-450.56 450.56c0 249.079 201.48 450.56 450.56 450.56z" />
<glyph unicode="&#xe921;" glyph-name="list-bullets" d="M362.667 746.752c-5.658 0-11.084 2.248-15.085 6.249s-6.249 9.427-6.249 15.085c0 5.658 2.248 11.084 6.249 15.085s9.427 6.248 15.085 6.248h640c5.658 0 11.085-2.247 15.087-6.248 3.998-4.001 6.246-9.427 6.246-15.085s-2.249-11.084-6.246-15.085c-4.002-4.001-9.429-6.249-15.087-6.249h-640zM362.667 405.419c-5.658 0-11.084 2.249-15.085 6.251-4.001 3.998-6.249 9.425-6.249 15.083s2.248 11.085 6.249 15.087c4 3.998 9.427 6.246 15.085 6.246h640c5.658 0 11.085-2.249 15.087-6.246 3.998-4.002 6.246-9.429 6.246-15.087s-2.249-11.085-6.246-15.083c-4.002-4.002-9.429-6.251-15.087-6.251h-640zM362.667 64.085c-5.658 0-11.084 2.249-15.085 6.251-4.001 3.998-6.249 9.425-6.249 15.083s2.248 11.085 6.249 15.087c4 3.998 9.427 6.246 15.085 6.246h640c5.658 0 11.085-2.249 15.087-6.246 3.998-4.002 6.246-9.429 6.246-15.087s-2.249-11.085-6.246-15.083c-4.002-4.002-9.429-6.251-15.087-6.251h-640zM64 661.419c-35.285 0-64 28.715-64 64v85.333c0 35.285 28.715 64 64 64h85.333c35.285 0 64-28.715 64-64v-85.333c0-35.285-28.715-64-64-64h-85.333zM64 832.086c-5.658 0-11.084-2.247-15.085-6.248s-6.249-9.427-6.249-15.085v-85.333c0-5.658 2.248-11.084 6.249-15.085s9.427-6.249 15.085-6.249h85.333c5.658 0 11.084 2.248 15.085 6.249s6.249 9.427 6.249 15.085v85.333c0 5.658-2.248 11.084-6.249 15.085s-9.427 6.248-15.085 6.248h-85.333zM64 320.085c-35.285 0-64 28.715-64 64v85.333c0 35.285 28.715 64 64 64h85.333c35.285 0 64-28.715 64-64v-85.333c0-35.285-28.715-64-64-64h-85.333zM64 490.752c-5.658 0-11.084-2.249-15.085-6.246-4.001-4.002-6.249-9.429-6.249-15.087v-85.333c0-5.658 2.248-11.085 6.249-15.083 4-4.002 9.427-6.251 15.085-6.251h85.333c5.658 0 11.084 2.249 15.085 6.251 4.001 3.998 6.249 9.425 6.249 15.083v85.333c0 5.658-2.248 11.085-6.249 15.087-4 3.998-9.427 6.246-15.085 6.246h-85.333zM64-21.248c-35.285 0-64 28.715-64 64v85.333c0 35.285 28.715 64 64 64h85.333c35.285 0 64-28.715 64-64v-85.333c0-35.285-28.715-64-64-64h-85.333zM64 149.419c-5.658 0-11.084-2.249-15.085-6.246-4.001-4.002-6.249-9.429-6.249-15.087v-85.333c0-5.658 2.248-11.085 6.249-15.083 4-4.002 9.427-6.251 15.085-6.251h85.333c5.658 0 11.084 2.249 15.085 6.251 4.001 3.998 6.249 9.425 6.249 15.083v85.333c0 5.658-2.248 11.085-6.249 15.087-4 3.998-9.427 6.246-15.085 6.246h-85.333z" />
<glyph unicode="&#xe922;" glyph-name="list-cards" d="M96-64c-25.454 0.021-49.859 10.146-67.857 28.143s-28.12 42.402-28.143 67.857v832c0.023 25.454 10.144 49.859 28.143 67.857s42.404 28.12 67.857 28.143h832c25.455-0.023 49.86-10.144 67.857-28.143s28.122-42.404 28.143-67.857v-832c-0.021-25.455-10.146-49.86-28.143-67.857s-42.402-28.122-67.857-28.143h-832zM96 896c-8.487 0-16.626-3.372-22.627-9.373s-9.373-14.141-9.373-22.627v-832c0-17.664 14.336-32 32-32h832c8.486 0 16.627 3.371 22.626 9.374 6.003 5.999 9.374 14.14 9.374 22.626v832c0 8.487-3.371 16.626-9.374 22.627-5.999 6.001-14.14 9.373-22.626 9.373h-832zM224 511.957c-8.487 0-16.626 3.371-22.627 9.374-6.001 5.999-9.373 14.14-9.373 22.627v192c0 8.487 3.372 16.626 9.373 22.627s14.141 9.373 22.627 9.373h192c8.487 0 16.627-3.371 22.626-9.373 6.003-6.001 9.374-14.14 9.374-22.627v-192c0-8.487-3.371-16.628-9.374-22.627-5.999-6.003-14.139-9.374-22.626-9.374h-192zM384 575.958v128h-128v-128h128zM608 511.957c-8.486 0-16.627 3.371-22.626 9.374-6.003 5.999-9.374 14.14-9.374 22.627v192c0 8.487 3.371 16.626 9.374 22.627 5.999 6.001 14.14 9.373 22.626 9.373h192c8.486 0 16.627-3.371 22.626-9.373 6.003-6.001 9.374-14.14 9.374-22.627v-192c0-8.487-3.371-16.628-9.374-22.627-5.999-6.003-14.14-9.374-22.626-9.374h-192zM768 575.958v128h-128v-128h128zM224 127.957c-8.487 0-16.626 3.371-22.627 9.374-6.001 5.999-9.373 14.14-9.373 22.626v192c0 8.486 3.372 16.627 9.373 22.63 6.001 5.999 14.141 9.37 22.627 9.37h192c8.487 0 16.627-3.371 22.626-9.37 6.003-6.003 9.374-14.144 9.374-22.63v-192c0-8.486-3.371-16.627-9.374-22.626-5.999-6.003-14.139-9.374-22.626-9.374h-192zM384 191.957v128h-128v-128h128zM608 127.957c-8.486 0-16.627 3.371-22.626 9.374-6.003 5.999-9.374 14.14-9.374 22.626v192c0 8.486 3.371 16.627 9.374 22.63 5.999 5.999 14.14 9.37 22.626 9.37h192c8.486 0 16.627-3.371 22.626-9.37 6.003-6.003 9.374-14.144 9.374-22.63v-192c0-8.486-3.371-16.627-9.374-22.626-5.999-6.003-14.14-9.374-22.626-9.374h-192zM768 191.957v128h-128v-128h128z" />
<glyph unicode="&#xe923;" glyph-name="lock-password" d="M362.667 362.667c17.673 0 32 14.327 32 32s-14.327 32-32 32c-17.673 0-32-14.327-32-32s14.327-32 32-32zM512 362.667c17.673 0 32 14.327 32 32s-14.327 32-32 32c-17.673 0-32-14.327-32-32s14.327-32 32-32zM661.333 362.667c17.673 0 32 14.327 32 32s-14.327 32-32 32c-17.673 0-32-14.327-32-32s14.327-32 32-32zM362.667 213.333c17.673 0 32 14.327 32 32s-14.327 32-32 32c-17.673 0-32-14.327-32-32s14.327-32 32-32zM512 213.333c17.673 0 32 14.327 32 32s-14.327 32-32 32c-17.673 0-32-14.327-32-32s14.327-32 32-32zM661.333 213.333c17.673 0 32 14.327 32 32s-14.327 32-32 32c-17.673 0-32-14.327-32-32s14.327-32 32-32zM362.667 64c17.673 0 32 14.327 32 32s-14.327 32-32 32c-17.673 0-32-14.327-32-32s14.327-32 32-32zM512 64c-8.486 0-16.627 3.371-22.626 9.374-6.003 5.999-9.374 14.14-9.374 22.626-0.013 4.207 0.811 8.371 2.415 12.258s3.959 7.42 6.933 10.394c2.974 2.974 6.507 5.329 10.394 6.933s8.051 2.428 12.258 2.415l2.432-0.171c8.102-0.815 15.586-4.689 20.932-10.833 5.342-6.14 8.145-14.089 7.838-22.225-0.311-8.137-3.712-15.846-9.506-21.564-5.798-5.717-13.555-9.011-21.696-9.207zM661.333 64c17.673 0 32 14.327 32 32s-14.327 32-32 32c-17.673 0-32-14.327-32-32s14.327-32 32-32zM192-64c-35.285 0-64 28.715-64 64v512c0 35.285 28.715 64 64 64h64v128c0 141.141 114.859 256 256 256s256-114.859 256-256v-128h64c35.285 0 64-28.715 64-64v-512c0-35.285-28.715-64-64-64h-640zM192 533.333c-5.658 0-11.084-2.249-15.085-6.246-4.001-4.002-6.249-9.429-6.249-15.087v-512c0-5.658 2.248-11.085 6.249-15.087 4-3.998 9.427-6.246 15.085-6.246h640c5.658 0 11.085 2.249 15.087 6.246 3.998 4.002 6.246 9.429 6.246 15.087v512c0 5.658-2.249 11.085-6.246 15.087-4.002 3.998-9.429 6.246-15.087 6.246h-640zM725.333 576v128c0 117.632-95.701 213.333-213.333 213.333s-213.333-95.701-213.333-213.333v-128h426.667z" />
<glyph unicode="&#xe924;" glyph-name="logout" d="M63.958-64c-35.285 0-64 28.715-64 64v896c0 35.285 28.715 64 64 64h469.332c35.285 0 64-28.715 64-64v-149.333c0-5.658-2.249-11.084-6.246-15.085-4.002-4.001-9.429-6.249-15.087-6.249s-11.085 2.248-15.083 6.249c-4.002 4-6.251 9.427-6.251 15.085v149.333c0 5.658-2.249 11.084-6.246 15.085-4.002 4.001-9.429 6.249-15.087 6.249h-469.332c-5.658 0-11.084-2.248-15.085-6.249s-6.248-9.427-6.248-15.085v-896c0-5.658 2.248-11.085 6.248-15.087 4.001-3.998 9.427-6.246 15.085-6.246h469.332c5.658 0 11.085 2.249 15.087 6.246 3.998 4.002 6.246 9.429 6.246 15.087v149.333c0 5.658 2.249 11.085 6.251 15.087 3.998 3.998 9.425 6.246 15.083 6.246s11.085-2.249 15.087-6.246c3.998-4.002 6.246-9.429 6.246-15.087v-149.333c0-35.285-28.715-64-64-64h-469.332zM789.291 213.333c-4.215 0-8.337 1.25-11.844 3.593-3.503 2.342-6.238 5.67-7.855 9.562-1.617 3.895-2.039 8.179-1.225 12.318 0.819 4.134 2.846 7.936 5.82 10.923l176.896 176.896h-759.124c-5.658 0-11.084 2.249-15.085 6.246-4.001 4.002-6.249 9.429-6.249 15.087s2.248 11.085 6.249 15.083c4.001 4.002 9.427 6.251 15.085 6.251h759.167l-176.896 176.896c-4.011 4-6.268 9.43-6.276 15.095s2.236 11.101 6.234 15.113c4.002 4.012 9.429 6.269 15.095 6.278s11.102-2.235 15.113-6.235l213.333-213.333c3.951-4.028 6.161-9.442 6.161-15.083s-2.21-11.055-6.161-15.083l-213.291-213.333c-1.984-1.993-4.348-3.571-6.946-4.651-2.598-1.075-5.385-1.626-8.201-1.621z" />
<glyph unicode="&#xe925;" glyph-name="maintenance" d="M328.080 371.52c-5.655-0.001-10.774-2.294-14.48-6l-269.12-269.28c-0.136-0.133-0.267-0.264-0.395-0.396l-0.005-0.005c-14.651-15.493-22.701-36.115-22.4-57.439s8.917-41.645 24-56.72c15.082-15.073 35.478-23.705 56.8-24 21.321-0.291 41.95 7.741 57.44 22.4 0.136 0.133 0.267 0.264 0.395 0.396l269.125 269.124c3.705 3.706 5.996 8.826 5.996 14.48s-2.291 10.774-5.996 14.48l-86.88 86.96c-3.706 3.706-8.825 5.999-14.48 6v0zM328.080 322.080l57.92-58-254.24-254.24c-7.752-7.336-18.046-11.345-28.72-11.2-10.674 0.148-20.851 4.455-28.4 12-7.548 7.543-11.849 17.725-12 28.4-0.15 10.613 3.869 20.822 11.12 28.56 0.042 0.045 0.038 0.115 0.080 0.16zM270.24 408.96c-3.705-3.706-5.997-8.825-5.997-14.48s2.292-10.774 5.997-14.48l173.68-173.76c3.706-3.705 8.825-5.997 14.48-5.997s10.774 2.292 14.48 5.997v0c3.705 3.706 5.997 8.825 5.997 14.48s-2.292 10.774-5.997 14.48l-173.68 173.76c-3.706 3.705-8.825 5.997-14.48 5.997s-10.774-2.292-14.48-5.997v0zM836 792c-5.655-0.001-10.774-2.294-14.48-6v0l-464.4-463.92c-3.705-3.706-5.997-8.825-5.997-14.48s2.292-10.774 5.997-14.48v0c3.706-3.705 8.825-5.997 14.48-5.997s10.774 2.292 14.48 5.997l464.4 463.92c3.705 3.706 5.997 8.825 5.997 14.48s-2.292 10.774-5.997 14.48v0c-3.706 3.706-8.825 5.999-14.48 6v0zM929.36 939.36c-9.564 0.853-19.079-1.722-26.96-7.2l-90.8-63.040c-7.388-5.139-13.57-11.829-18.080-19.6-4.493-7.752-7.204-16.415-8-25.36-0.793-8.962 0.36-18.030 3.44-26.48 3.079-8.452 7.948-16.128 14.32-22.48l33.28-33.2c6.235-6.232 13.743-11.006 22-14.080 8.258-3.075 17.053-4.395 25.84-3.76s17.309 3.209 25.040 7.44c7.73 4.23 14.489 10.061 19.76 17.12l66.080 88.32c5.935 7.871 8.84 17.676 8.16 27.52-0.672 9.85-4.883 19.097-11.84 26.080l-36.88 36.88c-6.794 6.797-15.797 10.987-25.36 11.84zM925.76 898.56l36.8-36.8c0-0.012 0-0.026 0-0.040s0-0.028 0-0.042v0.002l-66.16-88.48c-1.757-2.353-3.984-4.27-6.56-5.68-2.574-1.409-5.471-2.268-8.4-2.48s-5.888 0.175-8.64 1.2c-2.753 1.025-5.208 2.649-7.28 4.72l-33.28 33.28c-2.123 2.116-3.774 4.623-4.8 7.44-1.026 2.818-1.384 5.814-1.12 8.8 0 0.012 0 0.026 0 0.040s0 0.028 0 0.042v-0.002c0.262 2.974 1.133 5.799 2.64 8.4 1.511 2.603 3.541 4.849 6 6.56zM204.8 939.52c-12.708 0.005-25.396-1.345-37.84-3.92-7.225-1.513-13.928-4.92-19.36-9.92s-9.414-11.406-11.52-18.48c-2.107-7.075-2.293-14.605-0.48-21.76s5.579-13.661 10.8-18.88l58.4-58.48v-52.88h-52.96l-58.4 58.4c-5.218 5.22-11.804 8.907-18.96 10.72s-14.685 1.707-21.76-0.4c-7.074-2.106-13.401-6.088-18.4-11.52s-8.487-12.133-10-19.36c0-0.012 0-0.026 0-0.040s0-0.028 0-0.042v0.002c-2.575-12.444-3.845-25.052-3.84-37.76-0.003-30.802 7.749-61.109 22.48-88.16s35.964-50.010 61.84-66.72c25.875-16.71 55.524-26.663 86.24-28.96 25.259-1.889 49.869 4.744 73.68 13.040l133.92-133.92c3.706-3.705 8.825-5.997 14.48-5.997s10.774 2.292 14.48 5.997v0c3.705 3.706 5.997 8.825 5.997 14.48s-2.292 10.774-5.997 14.48l-140.88 140.88c-3.706 3.705-8.826 5.997-14.481 5.997-3.074 0-5.989-0.677-8.605-1.89l0.127 0.053c-21.836-9.859-45.788-14.027-69.68-12.24s-46.913 9.483-67.040 22.48c-20.127 12.997-36.702 30.879-48.16 51.92s-17.442 44.602-17.44 68.56c-0.004 9.888 1.042 19.757 3.040 29.44l58.4-58.48c7.671-7.651 18.126-11.918 28.96-11.92h52.96c10.856 0 21.284 4.323 28.96 12 7.675 7.675 12 18.104 12 28.96v52.96c-0.002 10.834-4.347 21.209-12 28.88 0 0.012 0 0.026 0 0.040s0 0.028 0 0.042v-0.002l-58.4 58.4c9.684 1.998 19.553 3.044 29.44 3.040 23.959 0.002 47.519-5.982 68.56-17.44s38.923-28.033 51.92-48.16c12.997-20.127 20.693-43.228 22.48-67.12s-2.461-47.844-12.32-69.68c-1.129-2.46-1.788-5.337-1.788-8.369 0-5.67 2.304-10.802 6.027-14.511l140.881-140.881c3.706-3.705 8.825-5.997 14.48-5.997s10.774 2.292 14.48 5.997v0c3.705 3.706 5.997 8.825 5.997 14.48s-2.292 10.774-5.997 14.48l-133.92 133.92c8.296 23.811 14.929 48.421 13.040 73.68-2.297 30.716-12.251 60.364-28.96 86.24s-39.669 47.109-66.72 61.84c-27.051 14.731-57.358 22.483-88.16 22.48zM596.4 445.52c-3.705-3.706-5.997-8.825-5.997-14.48s2.292-10.774 5.997-14.48l140.88-140.96c3.706-3.706 8.826-5.997 14.481-5.997 3.074 0 5.989 0.677 8.605 1.89l-0.127-0.053c21.833 9.859 45.789 14.108 69.68 12.32 23.891-1.785 46.917-9.562 67.040-22.56 20.127-12.995 36.701-30.801 48.16-51.84 11.459-21.044 17.444-44.601 17.44-68.56 0.004-9.915-1.031-19.817-3.040-29.52l-58.4 58.48c-7.669 7.653-18.123 12-28.96 12h-52.96c-10.858 0-21.285-4.333-28.96-12-7.667-7.675-12-18.102-12-28.96v-52.96c0-10.837 4.342-21.286 12-28.96l58.4-58.48c-9.687-1.997-19.557-2.964-29.44-2.96-23.959-0.004-47.522 5.982-68.56 17.44-21.043 11.459-38.925 28.033-51.92 48.16-12.998 20.123-20.695 43.149-22.48 67.040-1.788 23.891 2.461 47.847 12.32 69.68 1.145 2.475 1.812 5.371 1.812 8.424 0 5.682-2.314 10.824-6.051 14.535l-140.881 140.881c-3.706 3.705-8.825 5.997-14.48 5.997s-10.774-2.292-14.48-5.997v0c-3.705-3.706-5.997-8.825-5.997-14.48s2.292-10.774 5.997-14.48l133.92-134c-8.278-23.789-14.929-48.367-13.040-73.6 2.295-30.717 12.246-60.365 28.96-86.24 16.709-25.879 39.668-47.189 66.72-61.92 27.049-14.732 57.355-22.405 88.16-22.4 12.708-0.005 25.401 1.269 37.84 3.84 7.224 1.515 13.93 5.004 19.36 10s9.414 11.318 11.52 18.4c2.103 7.070 2.288 14.609 0.48 21.76-1.814 7.166-5.584 13.664-10.8 18.88l-58.4 58.48v52.96h52.96l58.4-58.48c5.216-5.216 11.794-8.906 18.96-10.72 7.151-1.808 14.61-1.623 21.68 0.48 7.082 2.107 13.483 6.089 18.48 11.52 5.016 5.442 8.488 12.071 10 19.28 0 0.012 0 0.027 0 0.041s0 0.029 0 0.043v-0.002c2.578 12.446 3.845 25.134 3.84 37.838 0.005 30.805-7.749 61.108-22.48 88.16-14.731 27.048-35.961 49.931-61.84 66.64-25.875 16.714-55.523 26.745-86.24 29.040-25.26 1.891-49.869-4.743-73.68-13.040l-133.92 133.92c-3.706 3.705-8.825 5.997-14.48 5.997s-10.774-2.292-14.48-5.997v0z" />
<glyph unicode="&#xe926;" glyph-name="maps-pin-1" d="M320 22.315c-8.908-0.009-17.594 2.782-24.832 7.979l-277.333 198.101c-5.512 3.959-10.003 9.178-13.104 15.215s-4.722 12.727-4.731 19.516v630.228c-0.017 5.609 1.084 11.165 3.238 16.344s5.317 9.878 9.306 13.821c3.945 3.968 8.64 7.113 13.811 9.252s10.716 3.229 16.311 3.206c9.003 0 17.579-2.773 24.832-7.979l252.501-180.352 273.835 195.541c7.68 5.529 16.998 8.309 26.453 7.893 8.149-0.256 16.299-2.987 23.168-7.893l277.333-198.059c11.221-8.021 17.877-20.992 17.877-34.773v-202.324c0-5.658-2.249-11.085-6.246-15.087-4.002-3.998-9.429-6.246-15.087-6.246s-11.085 2.249-15.083 6.246c-4.002 4.002-6.251 9.429-6.251 15.087v202.367l-256 182.869v-385.151c0-5.658-2.249-11.085-6.246-15.087-4.002-3.998-9.429-6.246-15.087-6.246s-11.085 2.249-15.083 6.246c-4.002 4.002-6.251 9.429-6.251 15.087v385.151l-256-182.827v-630.228l222.251 158.763c3.443 2.398 7.514 3.733 11.708 3.836 4.19 0.107 8.324-1.024 11.883-3.243 3.558-2.223 6.383-5.44 8.128-9.254s2.334-8.060 1.69-12.203c-0.452-2.769-1.455-5.423-2.94-7.804-1.489-2.381-3.43-4.442-5.722-6.063l-243.499-173.952c-7.238-5.197-15.923-7.987-24.832-7.979zM42.667 263.125l256-182.869v630.186l-256 182.869v-630.186zM831.957-55.253c-6.413-0.030-12.745 1.404-18.522 4.19-5.773 2.79-10.837 6.857-14.801 11.895-59.264 74.923-158.635 212.309-158.635 291.285 0 105.856 86.144 192 192 192s192-86.144 192-192c0-78.976-99.328-216.32-158.549-291.157-3.989-5.065-9.075-9.161-14.878-11.968s-12.169-4.262-18.615-4.245zM832 401.451c-82.347 0-149.333-66.987-149.333-149.333 0-55.936 77.141-173.44 149.333-264.704 72.192 91.264 149.333 208.725 149.333 264.704 0 82.347-66.987 149.333-149.333 149.333zM832 166.784c-47.061 0-85.333 38.272-85.333 85.333s38.272 85.333 85.333 85.333c47.061 0 85.333-38.272 85.333-85.333s-38.272-85.333-85.333-85.333zM832 294.784c-11.315 0-22.17-4.497-30.17-12.497s-12.497-18.854-12.497-30.17c0-11.315 4.497-22.17 12.497-30.17s18.854-12.497 30.17-12.497c11.315 0 22.17 4.497 30.17 12.497s12.497 18.854 12.497 30.17c0 11.315-4.497 22.17-12.497 30.17s-18.854 12.497-30.17 12.497z" />
<glyph unicode="&#xe927;" glyph-name="meal" d="M874.667 960c-11.782-0.001-21.332-9.552-21.333-21.333v0-981.333c0-11.782 9.551-21.333 21.333-21.333v0c11.782 0 21.333 9.551 21.333 21.333v0 320h85.333c11.31 0 22.172 4.514 30.167 12.5 7.986 7.995 12.5 18.857 12.5 30.167 0 0.025 0 0.054 0 0.083s0 0.059 0 0.088v-0.005c-1.441 167.788-19.088 323.572-43.917 438.5-12.414 57.464-26.46 104.581-42 138.917-7.77 17.168-15.778 31.195-25.333 42.167s-22.064 20.25-38.083 20.25zM896 885.417c1.137-2.295 2.023-2.89 3.167-5.417 13.425-29.664 27.238-74.731 39.25-130.333 24.016-111.166 41.488-264.721 42.917-429.667h-85.333zM21.333 960c-11.782 0-21.333-9.551-21.333-21.333v0-213.333c0-39.597 15.75-77.584 43.75-105.583s65.986-43.75 105.583-43.75c39.597 0 77.584 15.75 105.583 43.75s43.75 65.986 43.75 105.583v213.333c0 11.782-9.551 21.333-21.333 21.333v0c-11.782 0-21.333-9.551-21.333-21.333v0-213.333c0-28.298-11.24-55.407-31.25-75.417s-47.119-31.25-75.417-31.25c-28.298 0-55.407 11.24-75.417 31.25s-31.25 47.119-31.25 75.417v213.333c0 11.782-9.551 21.333-21.333 21.333v0zM149.417 960c-11.782 0-21.333-9.551-21.333-21.333v0-981.333c0-11.782 9.551-21.333 21.333-21.333v0c11.782 0 21.333 9.551 21.333 21.333v0 981.333c0 11.782-9.551 21.333-21.333 21.333v0zM512.083 576c-164.696 0-298.667-133.969-298.667-298.667s133.971-298.667 298.667-298.667c164.698 0 298.667 133.969 298.667 298.667s-133.969 298.667-298.667 298.667zM512.083 533.333c141.64 0 256-114.36 256-256s-114.36-256-256-256c-141.637 0-256 114.36-256 256s114.363 256 256 256z" />
<glyph unicode="&#xe928;" glyph-name="menu" d="M96 159.876c-8.487 0-16.626 3.371-22.627 9.37-6.001 6.003-9.373 14.144-9.373 22.63s3.372 16.623 9.373 22.626c6.001 6.003 14.141 9.374 22.627 9.374h832c8.486 0 16.627-3.371 22.626-9.374 6.003-6.003 9.374-14.14 9.374-22.626s-3.371-16.627-9.374-22.63c-5.999-5.999-14.14-9.37-22.626-9.37h-832zM96 415.876c-8.487 0-16.626 3.371-22.627 9.37-6.001 6.003-9.373 14.144-9.373 22.63s3.372 16.623 9.373 22.626c6.001 6.003 14.141 9.374 22.627 9.374h832c8.486 0 16.627-3.371 22.626-9.374 6.003-6.003 9.374-14.14 9.374-22.626s-3.371-16.627-9.374-22.63c-5.999-5.999-14.14-9.37-22.626-9.37h-832zM96 671.875c-8.487 0-16.626 3.372-22.627 9.373s-9.373 14.141-9.373 22.627c0 8.487 3.372 16.626 9.373 22.627s14.141 9.373 22.627 9.373h832c8.486 0 16.627-3.372 22.626-9.373 6.003-6.001 9.374-14.141 9.374-22.627s-3.371-16.626-9.374-22.627c-5.999-6.001-14.14-9.373-22.626-9.373h-832z" />
<glyph unicode="&#xe929;" glyph-name="minus" d="M85.333 469.333c-11.782 0-21.333-9.551-21.333-21.333v0c0-11.782 9.551-21.333 21.333-21.333v0h853.333c11.782 0 21.333 9.551 21.333 21.333v0c0 11.782-9.551 21.333-21.333 21.333v0z" />
<glyph unicode="&#xe92a;" glyph-name="money" d="M400.667 551.25c-9.23 0-18.285-2.965-25.667-8.5 0.028 0.066 0 0.011-0.027-0.044l-0.056-0.123c-48.459-36.987-98.679-90.079-137.5-148.75s-66.75-122.761-66.75-183.75c0-80.568 23.799-147.641 80.25-191.667s141.282-64.333 261.083-64.333c119.801 0 204.632 20.307 261.083 64.333s80.25 111.098 80.25 191.667c0 60.961-27.876 124.992-66.583 183.667s-88.718 111.837-137.167 148.833c-0.056 0.057-0.11 0.111-0.165 0.165l-0.001 0.001c-7.385 5.541-16.353 8.5-25.584 8.5zM400.667 508.583h223.083c43.944-33.574 91.565-83.987 127.417-138.333 35.874-54.381 59.5-112.712 59.5-160.167 0-72.647-18.868-122.997-63.75-158s-120.052-55.333-234.917-55.333c-114.865 0-190.035 20.33-234.917 55.333s-63.75 85.353-63.75 158c0 47.427 23.682 105.782 59.667 160.167 35.962 54.351 83.69 104.75 127.667 138.333zM362.833 636.75c-11.782 0-21.333-9.551-21.333-21.333v0c0-11.782 9.551-21.333 21.333-21.333v0h298.667c11.782 0 21.333 9.551 21.333 21.333v0c0 11.782-9.551 21.333-21.333 21.333v0zM512.083 942.083c-8.536 0-16.855-2.545-23.917-7.333s-12.507-11.561-15.667-19.5l-14.833-37-69.417 29.75c-8.164 3.544-17.296 4.452-26 2.583s-16.592-6.417-22.583-13c-5.989-6.583-9.792-14.909-10.833-23.75s0.704-17.788 5-25.583c0.122-0.167 0.204-0.275 0.287-0.383l-0.037 0.050c23.762-41.069 40.406-85.884 49.25-132.5l-0.167 1.333c1.296-10.37 6.305-19.947 14.167-26.833s18.050-10.58 28.5-10.5h173.083c10.45-0.080 20.556 3.616 28.417 10.5 7.865 6.887 12.954 16.466 14.25 26.833l-0.166-1.25c8.599 46.618 24.99 91.464 48.583 132.583 0.047 0.059 0.13 0.168 0.212 0.277l0.040 0.056c4.281 7.782 6.040 16.733 4.998 25.583-1.047 8.824-4.845 17.166-10.833 23.75-5.997 6.593-13.883 11.132-22.583 13-8.704 1.869-17.836 0.961-26-2.583l-69.333-29.75-14.75 36.833c-3.16 7.939-8.606 14.712-15.667 19.5-7.068 4.793-15.464 7.333-24 7.333zM512.083 899.417l22.833-57.167c3.234-7.925 10.88-13.408 19.808-13.408 3.052 0 5.954 0.641 8.579 1.795l-0.137-0.054 89.583 38.417c0.013 0 0.028 0 0.043 0s0.030 0 0.045 0h-0.002c-25.897-45.215-43.967-94.508-53.419-145.75-0.051-0.266-0.109-0.665-0.157-1.066l-0.010-0.1c-0.025 0-0.054 0-0.083 0s-0.059 0-0.088 0h-173.412c-0.025 0-0.054 0-0.083 0s-0.059 0-0.088 0h0.005c-0.089 0.578-0.176 1.030-0.277 1.476l0.027-0.143c-9.74 51.336-28.082 100.606-54.25 145.833l0.25-0.333c0.028-0.028 0.055-0.055 0.082-0.082l0.001-0.001 89.583-38.417c2.488-1.101 5.39-1.741 8.442-1.741 8.927 0 16.574 5.483 19.756 13.265l0.052 0.142zM533.5 444.75c-11.782 0-21.333-9.551-21.333-21.333v0-42.667c0-11.782 9.551-21.333 21.333-21.333v0c11.782 0 21.333 9.551 21.333 21.333v0 42.667c0 11.782-9.551 21.333-21.333 21.333v0zM510.75 402.083c-18.256 0.040-35.981-6.317-50.083-17.917-14.123-11.616-23.695-27.802-27.167-45.75-0.013 0-0.028 0-0.043 0s-0.030 0-0.045 0h0.002c-3.466-17.946-0.528-36.538 8.25-52.583 8.765-16.027 22.872-28.57 39.833-35.333l88-35.165c7.741-3.114 14.174-8.836 18.167-16.167 3.991-7.328 5.249-15.809 3.667-24-1.582-8.188-5.981-15.601-12.417-20.917-6.431-5.312-14.486-8.161-22.833-8.167h-86.748c-11.782 0-21.333-9.551-21.333-21.333v0c0-11.782 9.551-21.333 21.333-21.333v0h86.75c0.013 0 0.028 0 0.043 0s0.030 0 0.045 0h-0.002c18.243 0.012 35.85 6.298 49.917 17.917 14.061 11.614 23.705 27.835 27.167 45.75 3.461 17.912 0.558 36.48-8.167 52.5-8.722 16.016-22.737 28.523-39.667 35.333l-88.085 35.248c-7.768 3.090-14.243 8.756-18.25 16.083-4.013 7.336-5.336 15.874-3.75 24.083 1.589 8.215 5.966 15.528 12.417 20.833 0 0.013 0 0.028 0 0.043s0 0.030 0 0.045v-0.002c6.46 5.313 14.56 8.193 22.917 8.167 0.013 0 0.028 0 0.043 0s0.030 0 0.045 0h86.579c11.782 0 21.333 9.551 21.333 21.333v0c0 11.782-9.551 21.333-21.333 21.333v0h-86.5zM533.5 146.083c-11.782 0-21.333-9.551-21.333-21.333v0-42.667c0-11.782 9.551-21.333 21.333-21.333v0c11.782 0 21.333 9.551 21.333 21.333v0 42.667c0 11.782-9.551 21.333-21.333 21.333v0z" />
<glyph unicode="&#xe92b;" glyph-name="monitoramento" d="M511.189 342.4c-14.012 0.213-27.844 3.2-40.695 8.785-12.851 5.589-24.469 13.666-34.185 23.77-19.3 19.836-30.098 46.417-30.098 74.091s10.799 54.255 30.098 74.091c34.432 34.432 318.805 209.621 351.147 229.504 4.092 2.513 8.909 3.574 13.679 3.008 4.766-0.565 9.207-2.722 12.595-6.122 3.392-3.4 5.534-7.845 6.084-12.614 0.555-4.77-0.521-9.586-3.046-13.67-19.84-32.299-194.944-316.501-229.419-350.72-19.874-19.366-46.532-30.191-74.283-30.165l-1.877 0.043zM732.629 668.459c-118.699-74.069-247.424-156.757-265.899-175.232-23.893-24.747-23.808-63.744 0.256-88.661 5.824-6.067 12.796-10.918 20.506-14.272 7.714-3.354 16.013-5.146 24.422-5.269h1.109c16.64 0 32.427 6.357 44.416 17.92 18.56 18.517 101.205 147.029 175.189 265.515zM149.333 426.667c-5.658 0-11.084 2.249-15.085 6.246-4.001 4.002-6.249 9.429-6.249 15.087s2.248 11.085 6.249 15.087c4 3.998 9.427 6.246 15.085 6.246h64c5.658 0 11.084-2.249 15.085-6.246 4.001-4.002 6.249-9.429 6.249-15.087s-2.248-11.085-6.249-15.087c-4-3.998-9.427-6.246-15.085-6.246h-64zM300.801 637.867c-2.803-0.005-5.58 0.543-8.172 1.612s-4.947 2.638-6.932 4.618l-45.227 45.227c-2.991 2.984-5.029 6.788-5.856 10.932s-0.404 8.439 1.214 12.341c1.617 3.903 4.358 7.238 7.873 9.581s7.647 3.591 11.872 3.583c2.804 0.005 5.58-0.543 8.172-1.612s4.947-2.638 6.932-4.618l45.227-45.227c2.991-2.984 5.029-6.788 5.856-10.932s0.404-8.439-1.214-12.341c-1.618-3.903-4.358-7.238-7.874-9.581s-7.647-3.591-11.872-3.583zM512 725.333c-5.658 0-11.085 2.248-15.087 6.249-3.998 4-6.246 9.427-6.246 15.085v64c0 5.658 2.249 11.084 6.246 15.085 4.002 4.001 9.429 6.249 15.087 6.249s11.085-2.248 15.087-6.249c3.998-4 6.246-9.427 6.246-15.085v-64c0-5.658-2.249-11.084-6.246-15.085-4.002-4.001-9.429-6.249-15.087-6.249zM810.667 426.667c-5.658 0-11.085 2.249-15.087 6.246-3.998 4.002-6.246 9.429-6.246 15.087s2.249 11.085 6.246 15.087c4.002 3.998 9.429 6.246 15.087 6.246h64c5.658 0 11.085-2.249 15.087-6.246 3.998-4.002 6.246-9.429 6.246-15.087s-2.249-11.085-6.246-15.087c-4.002-3.998-9.429-6.246-15.087-6.246h-64zM512-64c-72.269 0.090-143.702 15.467-209.61 45.116s-124.8 72.9-172.811 126.916c-1.363 0.969-2.547 2.167-3.499 3.541l-0.811 1.365c-80.713 92.975-125.19 211.938-125.269 335.061 0 282.325 229.675 512 512 512s512-229.675 512-512c0-122.923-44.459-241.792-125.227-334.933-1.391-2.377-3.217-4.476-5.376-6.187-48.004-53.67-106.782-96.627-172.493-126.071-65.715-29.44-136.896-44.71-208.905-44.809zM176.811 119.936c88.107-89.941 209.536-141.269 335.189-141.269s247.083 51.328 335.189 141.269c-100.002 63.309-216.427 95.791-334.763 93.397-4.224 0.085-8.021 0.085-11.819 0.085-115.157 0-226.816-32.256-323.797-93.483zM523.392 256.085c125.653 0 247.339-35.883 352.555-103.936 68.083 83.575 105.297 188.053 105.387 295.851 0 258.773-210.56 469.333-469.333 469.333s-469.333-210.56-469.333-469.333c0-107.605 37.333-212.267 105.387-295.851 105.034 67.994 227.52 104.094 352.64 103.936l11.733-0.085 10.965 0.085z" />
<glyph unicode="&#xe92c;" glyph-name="movement" d="M533.278-21.333c-9.050 0.004-17.805 3.251-24.742 9.169-100.017 86.959-192.594 182.434-276.73 285.393-80.714 98.82-116.96 220.54-99.512 333.918 15.17 98.463 70.137 182.799 154.75 237.461 73.432 47.539 158.632 72.766 245.616 72.726h1.314c87.121 0 172.041-25.147 245.615-72.726 84.651-54.702 139.618-139.037 154.79-237.461 17.446-113.378-18.837-235.059-99.516-333.918-84.087-102.929-176.627-198.366-276.612-285.274-7.006-5.973-15.842-9.259-24.973-9.289zM532.659 877.979c-79.787 0-157.568-23.022-224.926-66.586-75.117-48.562-123.908-123.256-137.303-210.307-15.749-102.164 17.448-212.47 91.021-302.629 82.692-101.201 173.681-195.046 271.981-280.516 98.146 85.534 189.039 179.358 271.71 280.474 73.613 90.159 106.807 200.469 91.059 302.632-13.393 87.090-62.187 161.783-137.301 210.346-67.264 43.526-145.297 66.621-224.964 66.586h-1.276zM555.358 287.71c-8.286 0-16.35 2.722-22.997 7.761s-11.524 12.13-13.905 20.22l-39.258 133.372-130.78 39.983c-5.498 1.681-10.557 4.599-14.805 8.533-4.248 3.938-7.578 8.794-9.745 14.212-1.946 4.774-2.942 9.894-2.929 15.061s1.035 10.283 3.006 15.045c1.944 4.778 4.797 9.116 8.395 12.764s7.868 6.532 12.566 8.487l331.502 138.289c9.425 3.965 20.011 3.958 29.427-0.018 9.421-3.976 16.913-11.597 20.83-21.194 1.975-4.769 2.995-9.89 3.008-15.065s-0.981-10.301-2.927-15.081l-135.607-337.969c-2.914-7.232-7.872-13.414-14.246-17.758-6.37-4.348-13.867-6.656-21.534-6.643zM359.535 526.707l140.698-43.017c3.059-0.934 5.841-2.628 8.098-4.928 2.257-2.304 3.917-5.137 4.834-8.252l42.231-143.484 135.603 337.969-331.465-138.289z" />
<glyph unicode="&#xe92d;" glyph-name="navigation-menu-vertical" d="M512 704c-70.571 0-128 57.429-128 128s57.429 128 128 128c70.571 0 128-57.429 128-128s-57.429-128-128-128zM512 917.333c-47.061 0-85.333-38.272-85.333-85.333s38.272-85.333 85.333-85.333c47.061 0 85.333 38.272 85.333 85.333s-38.272 85.333-85.333 85.333zM512 320c-70.571 0-128 57.429-128 128s57.429 128 128 128c70.571 0 128-57.429 128-128s-57.429-128-128-128zM512 533.333c-47.061 0-85.333-38.272-85.333-85.333s38.272-85.333 85.333-85.333c47.061 0 85.333 38.272 85.333 85.333s-38.272 85.333-85.333 85.333zM512-64c-70.571 0-128 57.429-128 128s57.429 128 128 128c70.571 0 128-57.429 128-128s-57.429-128-128-128zM512 149.333c-47.061 0-85.333-38.272-85.333-85.333s38.272-85.333 85.333-85.333c47.061 0 85.333 38.272 85.333 85.333s-38.272 85.333-85.333 85.333z" />
<glyph unicode="&#xe92e;" glyph-name="new" d="M395.648 310.315c-3.064-0.021-6.097 0.623-8.889 1.886-2.792 1.259-5.277 3.115-7.284 5.427-2.007 2.317-3.489 5.039-4.343 7.983s-1.059 6.037-0.603 9.067l23.168 161.92c0.655 4.565 2.765 8.802 6.016 12.075l416.341 416.342c10.807 11.28 23.744 20.304 38.063 26.551 14.315 6.247 29.73 9.593 45.35 9.843h2.091c31.322 0.085 61.423-12.124 83.836-34.001s35.345-51.677 36.015-82.991c0.367-15.694-2.385-31.305-8.090-45.93s-14.251-27.974-25.148-39.276l-419.499-419.499c-3.238-3.273-7.471-5.389-12.032-6.016l-161.963-23.168c-1.002-0.158-2.015-0.23-3.029-0.213zM420.821 356.779l126.72 18.133 413.824 413.824c14.251 14.848 21.845 34.304 21.419 54.784-0.175 10.089-2.351 20.044-6.404 29.287-4.049 9.242-9.89 17.59-17.19 24.559-14.234 13.847-33.348 21.527-53.205 21.376h-1.579c-20.48-0.427-39.595-8.789-53.803-23.595l-411.605-411.648-18.176-126.72zM106.667-64c-28.279 0.034-55.391 11.281-75.387 31.279s-31.245 47.108-31.279 75.388v597.333c0 58.795 47.872 106.667 106.667 106.667h405.333c5.658 0 11.085-2.248 15.087-6.249 3.998-4 6.246-9.427 6.246-15.085s-2.249-11.084-6.246-15.085c-4.002-4.001-9.429-6.249-15.087-6.249h-405.333c-35.285 0-64-28.715-64-64v-597.333c0-35.285 28.715-64 64-64h597.333c35.285 0 64 28.715 64 64v405.333c0 5.658 2.249 11.085 6.246 15.087 4.002 3.998 9.429 6.246 15.087 6.246s11.085-2.249 15.087-6.246c3.998-4.002 6.246-9.429 6.246-15.087v-405.333c0-58.795-47.872-106.667-106.667-106.667h-597.333z" />
<glyph unicode="&#xe92f;" glyph-name="nf" d="M277.5 448c-23.314 0-42.667-19.355-42.667-42.667v-298.667c0-23.312 19.353-42.667 42.667-42.667h426.667c23.314 0 42.667 19.353 42.667 42.667v298.667c0 23.314-19.353 42.667-42.667 42.667zM277.5 405.333h426.667v-298.667h-426.667zM256.167 362.667c-11.782 0-21.333-9.551-21.333-21.333v0c0-11.782 9.551-21.333 21.333-21.333v0h469.333c11.782 0 21.333 9.551 21.333 21.333v0c0 11.782-9.551 21.333-21.333 21.333v0zM384.167 448c-11.782 0-21.333-9.551-21.333-21.333v0-341.333c0-11.782 9.551-21.333 21.333-21.333v0c11.782 0 21.333 9.551 21.333 21.333v0 341.333c0 11.782-9.551 21.333-21.333 21.333v0zM512.167 448c-11.782 0-21.333-9.551-21.333-21.333v0-341.333c0-11.782 9.551-21.333 21.333-21.333v0c11.782 0 21.333 9.551 21.333 21.333v0 341.333c0 11.782-9.551 21.333-21.333 21.333v0zM170.667 960c-16.966 0-33.254-6.754-45.25-18.75s-18.75-28.284-18.75-45.25v-896c0-16.965 6.751-33.253 18.75-45.25 11.995-11.993 28.282-18.75 45.25-18.75h640c16.968 0 33.254 6.754 45.25 18.75s18.75 28.282 18.75 45.25v640c-0.001 5.891-2.389 11.223-6.25 15.083l-298.667 298.667c-3.86 3.861-9.193 6.249-15.083 6.25v0zM170.667 917.333h375.167l286.167-286.167v-631.167c0-5.663-2.246-11.079-6.25-15.083s-9.421-6.25-15.083-6.25h-640c-5.664 0-11.075 2.243-15.083 6.25-4.004 4.003-6.25 9.418-6.25 15.083v896c0 5.666 2.243 11.077 6.25 15.083s9.417 6.25 15.083 6.25zM554.667 960c-11.782 0-21.333-9.551-21.333-21.333v0-256c0-16.968 6.757-33.255 18.75-45.25 11.997-11.999 28.285-18.75 45.25-18.75h256c11.782 0 21.333 9.551 21.333 21.333v0c0 11.782-9.551 21.333-21.333 21.333v0h-256c-5.665 0-11.080 2.246-15.083 6.25-4.007 4.008-6.25 9.419-6.25 15.083v256c0 11.782-9.551 21.333-21.333 21.333v0zM341.5 618.667c-11.782 0-21.333-9.551-21.333-21.333v0-42.667c0-11.782 9.551-21.333 21.333-21.333v0c11.782 0 21.333 9.551 21.333 21.333v0 42.667c0 11.782-9.551 21.333-21.333 21.333v0zM341.5 832c-11.782 0-21.333-9.551-21.333-21.333v0-42.667c0-11.782 9.551-21.333 21.333-21.333v0c11.782 0 21.333 9.551 21.333 21.333v0 42.667c0 11.782-9.551 21.333-21.333 21.333v0zM298.667 789.333c-16.966 0-33.254-6.754-45.25-18.75s-18.75-28.284-18.75-45.25c0-16.966 6.754-33.254 18.75-45.25s28.284-18.75 45.25-18.75h85.333c5.666 0 11.076-2.243 15.083-6.25s6.25-9.417 6.25-15.083c0-5.666-2.243-11.076-6.25-15.083s-9.417-6.25-15.083-6.25h-128c-11.782 0-21.333-9.551-21.333-21.333v0c0-11.782 9.551-21.333 21.333-21.333v0h128c16.966 0 33.254 6.754 45.25 18.75s18.75 28.284 18.75 45.25c0 16.966-6.754 33.254-18.75 45.25s-28.284 18.75-45.25 18.75h-85.333c-5.666 0-11.076 2.243-15.083 6.25s-6.25 9.417-6.25 15.083c0 5.666 2.243 11.076 6.25 15.083s9.417 6.25 15.083 6.25h128c11.782 0 21.333 9.551 21.333 21.333v0c0 11.782-9.551 21.333-21.333 21.333v0z" />
<glyph unicode="&#xe930;" glyph-name="notes-checklist-flip" d="M106.667-64c-35.285 0-64 28.715-64 64v810.667c0 35.285 28.715 64 64 64h64v64c0 5.658 2.248 11.084 6.249 15.085s9.427 6.248 15.085 6.248c5.658 0 11.084-2.248 15.085-6.248s6.249-9.427 6.249-15.085v-64h170.667v64c0 5.658 2.248 11.084 6.249 15.085s9.427 6.248 15.085 6.248c5.658 0 11.084-2.248 15.085-6.248s6.249-9.427 6.249-15.085v-64h170.667v64c0 5.658 2.249 11.084 6.246 15.085 4.002 4.001 9.429 6.248 15.087 6.248s11.085-2.248 15.087-6.248c3.998-4.001 6.246-9.427 6.246-15.085v-64h170.667v64c0 5.658 2.249 11.084 6.246 15.085 4.002 4.001 9.429 6.248 15.087 6.248s11.085-2.248 15.087-6.248c3.998-4.001 6.246-9.427 6.246-15.085v-64h64c35.285 0 64-28.715 64-64v-597.333c0-2.816-0.555-5.547-1.664-8.149-1.054-2.615-2.637-4.983-4.651-6.955l-255.957-255.957c-1.971-1.988-4.318-3.571-6.903-4.646s-5.359-1.63-8.158-1.626h-597.333zM106.667 832c-5.658 0-11.084-2.248-15.085-6.249s-6.249-9.427-6.249-15.085v-810.667c0-5.658 2.248-11.085 6.249-15.087 4-3.998 9.427-6.246 15.085-6.246h576v192c0 35.285 28.715 64 64 64h192v576c0 5.658-2.249 11.084-6.246 15.085-4.002 4.001-9.429 6.249-15.087 6.249h-64v-85.333c0-5.658-2.249-11.084-6.246-15.085-4.002-4.001-9.429-6.249-15.087-6.249s-11.085 2.248-15.087 6.249c-3.998 4-6.246 9.427-6.246 15.085v85.333h-170.667v-85.333c0-5.658-2.249-11.084-6.246-15.085-4.002-4.001-9.429-6.249-15.087-6.249s-11.085 2.248-15.087 6.249c-3.998 4-6.246 9.427-6.246 15.085v85.333h-170.667v-85.333c0-5.658-2.248-11.084-6.249-15.085s-9.427-6.249-15.085-6.249c-5.658 0-11.084 2.248-15.085 6.249s-6.249 9.427-6.249 15.085v85.333h-170.667v-85.333c0-5.658-2.248-11.084-6.249-15.085s-9.427-6.249-15.085-6.249c-5.658 0-11.084 2.248-15.085 6.249s-6.249 9.427-6.249 15.085v85.333h-64zM746.667 192c-5.658 0-11.085-2.249-15.087-6.246-3.998-4.002-6.246-9.429-6.246-15.087v-161.835l183.168 183.168h-161.835zM277.334 490.667c-2.804-0.004-5.58 0.542-8.172 1.609-2.592 1.071-4.947 2.641-6.932 4.621l-64 63.999c-2.991 2.984-5.029 6.788-5.856 10.932s-0.404 8.439 1.214 12.341c1.617 3.903 4.358 7.238 7.873 9.581s7.647 3.59 11.872 3.583c2.803 0.005 5.58-0.543 8.172-1.612s4.947-2.638 6.932-4.618l48.896-48.939 112.896 112.896c1.981 1.984 4.333 3.557 6.922 4.632s5.364 1.629 8.167 1.631c2.803 0.002 5.579-0.548 8.169-1.619s4.945-2.641 6.928-4.622c1.984-1.981 3.558-4.333 4.632-6.922s1.627-5.364 1.631-8.167c0-2.803-0.549-5.579-1.62-8.169s-2.641-4.945-4.622-6.928l-128-127.999c-1.985-1.98-4.34-3.55-6.932-4.621-2.592-1.067-5.369-1.613-8.172-1.609zM277.334 256c-2.804-0.004-5.58 0.542-8.172 1.609-2.592 1.071-4.947 2.641-6.932 4.621l-64 64c-2.991 2.982-5.029 6.788-5.856 10.931s-0.404 8.439 1.214 12.339c1.617 3.904 4.358 7.241 7.873 9.583s7.647 3.593 11.872 3.584c2.803 0.004 5.58-0.542 8.172-1.613 2.592-1.067 4.947-2.637 6.932-4.617l48.896-48.939 112.896 112.896c1.981 1.984 4.333 3.558 6.922 4.629 2.589 1.075 5.364 1.63 8.167 1.634 2.803 0 5.579-0.55 8.169-1.621s4.945-2.641 6.928-4.621c1.984-1.98 3.558-4.335 4.632-6.921 1.074-2.59 1.627-5.367 1.631-8.171 0-2.803-0.549-5.577-1.62-8.166-1.071-2.594-2.641-4.945-4.622-6.929l-128-128c-1.985-1.98-4.34-3.55-6.932-4.621-2.592-1.067-5.369-1.613-8.172-1.609zM490.667 533.333c-5.658 0-11.085 2.248-15.087 6.249-3.998 4-6.246 9.427-6.246 15.085s2.249 11.084 6.246 15.085c4.002 4.001 9.429 6.249 15.087 6.249h277.333c5.658 0 11.085-2.248 15.087-6.249 3.998-4 6.246-9.427 6.246-15.085s-2.249-11.084-6.246-15.085c-4.002-4.001-9.429-6.249-15.087-6.249h-277.333zM490.667 320c-5.658 0-11.085 2.249-15.087 6.246-3.998 4.002-6.246 9.429-6.246 15.087s2.249 11.085 6.246 15.087c4.002 3.998 9.429 6.246 15.087 6.246h277.333c5.658 0 11.085-2.249 15.087-6.246 3.998-4.002 6.246-9.429 6.246-15.087s-2.249-11.085-6.246-15.087c-4.002-3.998-9.429-6.246-15.087-6.246h-277.333z" />
</font>
</defs>
</svg>
